<svg width="25" height="24" viewBox="0 0 25 24" fill="none" xmlns="http://www.w3.org/2000/svg">
<mask id="mask0_2126_120" style="mask-type:alpha" maskUnits="userSpaceOnUse" x="0" y="0" width="25" height="24">
<rect x="0.75" width="24" height="24" fill="#D9D9D9"/>
</mask>
<g mask="url(#mask0_2126_120)">
<path d="M5.25 18.8846V17.3847H7.0577V9.92308C7.0577 8.57821 7.47276 7.38912 8.30287 6.35578C9.13301 5.32245 10.1987 4.66156 11.5 4.37311V2.50003H14V4.37311C15.3012 4.66156 16.3669 5.32245 17.1971 6.35578C18.0272 7.38912 18.4422 8.57821 18.4422 9.92308V17.3847H20.25V18.8846H5.25ZM12.7483 21.6923C12.2507 21.6923 11.8253 21.5153 11.4721 21.1613C11.1189 20.8073 10.9423 20.3817 10.9423 19.8846H14.5577C14.5577 20.3833 14.3805 20.8093 14.0261 21.1625C13.6718 21.5157 13.2459 21.6923 12.7483 21.6923ZM8.55765 17.3847H16.9423V9.92308C16.9423 8.76538 16.533 7.77724 15.7144 6.95866C14.8958 6.14006 13.9077 5.73076 12.75 5.73076C11.5923 5.73076 10.6041 6.14006 9.78555 6.95866C8.96695 7.77724 8.55765 8.76538 8.55765 9.92308V17.3847Z" fill="#A1A1AA"/>
</g>
</svg>
