<svg width="16" height="16" viewBox="0 0 16 16" fill="none" xmlns="http://www.w3.org/2000/svg">
<mask id="mask0_2126_242" style="mask-type:alpha" maskUnits="userSpaceOnUse" x="0" y="0" width="16" height="16">
<rect width="16" height="16" transform="matrix(-1 0 0 1 16 0)" fill="#D9D9D9"/>
</mask>
<g mask="url(#mask0_2126_242)">
<path fill-rule="evenodd" clip-rule="evenodd" d="M11.5539 13.5236C10.5373 14.1774 9.1987 14.6667 7.90593 14.6667C4.27597 14.6667 1.33331 11.6819 1.33331 8C1.33331 4.3181 4.27597 1.33333 7.90593 1.33333C11.5359 1.33333 14.4785 4.3181 14.4785 8C14.4785 8.46347 14.4273 9.03664 14.3714 9.66262C14.2699 10.7981 14.1528 12.1073 14.2979 13.2507C14.3619 13.7551 14.4768 14.2272 14.6666 14.638C14.3056 14.6197 13.7562 14.5294 13.1471 14.3227C12.6328 14.1482 12.0759 13.8908 11.5539 13.5236ZM12.917 12.7867C12.716 12.6866 12.5149 12.5694 12.3209 12.433L11.5871 11.9169L10.8326 12.4022C9.98108 12.9499 8.88926 13.3333 7.90593 13.3333C5.03015 13.3333 2.66665 10.9634 2.66665 8C2.66665 5.03656 5.03015 2.66666 7.90593 2.66666C10.7817 2.66666 13.1452 5.03656 13.1452 8C13.1452 8.3496 13.1095 8.79857 13.0593 9.36508C13.0541 9.42376 13.0487 9.48348 13.0433 9.54415C12.9984 10.0465 12.9476 10.6133 12.9194 11.1857C12.8948 11.6837 12.8836 12.23 12.917 12.7867Z" fill="#A1A1AA"/>
</g>
</svg>
