<svg width="24" height="24" viewBox="0 0 24 24" fill="none" xmlns="http://www.w3.org/2000/svg">
<mask id="mask0_2126_373" style="mask-type:alpha" maskUnits="userSpaceOnUse" x="0" y="0" width="24" height="24">
<rect width="24" height="24" fill="#D9D9D9"/>
</mask>
<g mask="url(#mask0_2126_373)">
<path fill-rule="evenodd" clip-rule="evenodd" d="M6.66916 20.2854C8.19398 21.2662 10.2019 22 12.1411 22C17.586 22 22 17.5228 22 12C22 6.47716 17.586 2 12.1411 2C6.69615 2 2.28216 6.47716 2.28216 12C2.28216 12.6952 2.35901 13.555 2.44294 14.4939C2.59518 16.1971 2.77072 18.1609 2.55316 19.876C2.45719 20.6326 2.28472 21.3409 2 21.957C2.54151 21.9295 3.36561 21.7941 4.27928 21.4841C5.05078 21.2224 5.88614 20.8362 6.66916 20.2854ZM4.62451 19.18C4.92591 19.0299 5.22768 18.8541 5.51856 18.6495L6.61925 17.8754L7.75105 18.6033C9.02835 19.4248 10.6661 20 12.1411 20C16.4547 20 20 16.4452 20 12C20 7.55484 16.4547 4 12.1411 4C7.82741 4 4.28216 7.55484 4.28216 12C4.28216 12.5244 4.33565 13.1979 4.41108 14.0476C4.41889 14.1356 4.4269 14.2252 4.43504 14.3162C4.50244 15.0697 4.5785 15.92 4.62088 16.7786C4.65775 17.5255 4.67451 18.3451 4.62451 19.18Z" fill="#F4F4F5"/>
</g>
</svg>
