<svg width="20" height="20" viewBox="0 0 20 20" fill="none" xmlns="http://www.w3.org/2000/svg">
<path d="M9.61242 1.66663C5.22414 1.66663 1.66667 5.2241 1.66667 9.61237C1.66667 13.3386 4.23219 16.4654 7.69305 17.3242V12.0406H6.05463V9.61237H7.69305V8.56608C7.69305 5.86166 8.91701 4.60814 11.5722 4.60814C12.0756 4.60814 12.9442 4.70699 13.2996 4.80551V7.00649C13.112 6.98678 12.7863 6.97693 12.3817 6.97693C11.0789 6.97693 10.5754 7.47052 10.5754 8.7536V9.61237H13.1708L12.7249 12.0406H10.5754V17.5C14.5099 17.0248 17.5585 13.6749 17.5585 9.61237C17.5582 5.2241 14.0007 1.66663 9.61242 1.66663Z" fill="#E4E4E7"/>
</svg>
