<svg width="20" height="20" viewBox="0 0 20 20" fill="none" xmlns="http://www.w3.org/2000/svg">
<path d="M10.4165 8.1438V11.2097H14.6771C14.4901 12.1957 13.9286 13.0306 13.0866 13.5919L15.6559 15.5855C17.1529 14.2037 18.0165 12.1742 18.0165 9.7632C18.0165 9.20184 17.9661 8.66202 17.8726 8.14389L10.4165 8.1438Z" fill="white"/>
<path d="M5.97983 11.0901L5.40035 11.5337L3.34918 13.1314C4.65183 15.7151 7.32171 17.4999 10.4164 17.4999C12.5538 17.4999 14.3458 16.7946 15.6557 15.5856L13.0864 13.592C12.3811 14.067 11.4815 14.3549 10.4164 14.3549C8.35806 14.3549 6.60925 12.9659 5.98306 11.0947L5.97983 11.0901Z" fill="white"/>
<path d="M3.34918 6.03516C2.80944 7.10026 2.5 8.30217 2.5 9.58321C2.5 10.8643 2.80944 12.0662 3.34918 13.1313C3.34918 13.1384 5.98332 11.0873 5.98332 11.0873C5.82498 10.6123 5.7314 10.1086 5.7314 9.58313C5.7314 9.05768 5.82498 8.55393 5.98332 8.07893L3.34918 6.03516Z" fill="white"/>
<path d="M10.4165 4.8189C11.5825 4.8189 12.6188 5.22192 13.4465 5.9992L15.7135 3.73218C14.3389 2.45114 12.5541 1.66663 10.4165 1.66663C7.32187 1.66663 4.65183 3.44427 3.34918 6.03519L5.98324 8.07913C6.60934 6.2079 8.35822 4.8189 10.4165 4.8189Z" fill="white"/>
</svg>
