<svg width="16" height="16" viewBox="0 0 16 16" fill="none" xmlns="http://www.w3.org/2000/svg">
<mask id="mask0_2126_239" style="mask-type:alpha" maskUnits="userSpaceOnUse" x="0" y="0" width="16" height="16">
<rect width="16" height="16" fill="#AA4A44"/>
</mask>
<g mask="url(#mask0_2126_239)">
<path d="M8 13.5512L7.26412 12.8897C6.159 11.8872 5.24511 11.0256 4.52245 10.3051C3.79981 9.5846 3.22716 8.94336 2.80452 8.3814C2.38186 7.81943 2.08656 7.30683 1.91862 6.84358C1.75066 6.38034 1.66669 5.91025 1.66669 5.43333C1.66669 4.48719 1.9857 3.6951 2.62374 3.05706C3.26177 2.41903 4.05386 2.10001 5 2.10001C5.58206 2.10001 6.13206 2.23613 6.65 2.50836C7.16795 2.78059 7.61795 3.17097 8 3.67951C8.38206 3.17097 8.83206 2.78059 9.35 2.50836C9.86795 2.23613 10.4179 2.10001 11 2.10001C11.9461 2.10001 12.7382 2.41903 13.3763 3.05706C14.0143 3.6951 14.3333 4.48719 14.3333 5.43333C14.3333 5.91025 14.2493 6.38034 14.0814 6.84358C13.9134 7.30683 13.6181 7.81943 13.1955 8.3814C12.7728 8.94336 12.2013 9.5846 11.4808 10.3051C10.7602 11.0256 9.84529 11.8872 8.73589 12.8897L8 13.5512ZM8 12.2C9.06667 11.2402 9.94445 10.4175 10.6333 9.73205C11.3222 9.04658 11.8667 8.45107 12.2667 7.94551C12.6667 7.43996 12.9444 6.99102 13.1 6.59871C13.2556 6.2064 13.3333 5.81794 13.3333 5.43333C13.3333 4.76666 13.1111 4.21111 12.6667 3.76666C12.2222 3.32222 11.6667 3.1 11 3.1C10.4735 3.1 9.98697 3.24936 9.54039 3.54808C9.09381 3.84679 8.74018 4.26239 8.47949 4.79488H7.52052C7.25556 4.25813 6.90087 3.84145 6.45642 3.54486C6.01198 3.24829 5.5265 3.1 5 3.1C4.33761 3.1 3.78313 3.32222 3.33654 3.76666C2.88996 4.21111 2.66667 4.76666 2.66667 5.43333C2.66667 5.81794 2.74445 6.2064 2.9 6.59871C3.05556 6.99102 3.33334 7.43996 3.73334 7.94551C4.13334 8.45107 4.67778 9.04551 5.36667 9.72885C6.05556 10.4122 6.93334 11.2359 8 12.2Z" fill="#AA4A44"/>
</g>
</svg>