<svg width="92" height="24" viewBox="0 0 92 24" fill="none" xmlns="http://www.w3.org/2000/svg">
<path d="M50.1428 10.5714C50.1428 8.11834 50.1508 7.08073 50.3647 6.25156C51.001 3.78463 52.9275 1.85823 55.3944 1.22188C56.2236 1.00799 57.2612 1 59.7143 1H79.4286C85.5037 1 90.4285 5.92487 90.4285 12C90.4285 18.0751 85.5037 23 79.4285 23H50.1428V10.5714Z" stroke="url(#paint0_linear_54_1872)" stroke-width="2"/>
<path d="M77.6589 18.74C73.2019 18.74 70.7493 16.9994 70.7493 13.9402V13.8611H74.7052V14.0985C74.7052 15.2852 75.4436 15.6017 77.6852 15.6017C79.795 15.6017 80.2961 15.2588 80.2961 14.4677C80.2961 13.7293 79.9005 13.5183 78.3446 13.3073L74.6261 12.859C71.9888 12.5689 70.512 11.3821 70.512 9.16683C70.512 6.84607 72.4899 5 77.0259 5C81.351 5 83.8036 6.63509 83.8036 9.85251V9.93163H79.8478V9.7734C79.8478 8.69213 79.3203 8.13831 76.8941 8.13831C74.9161 8.13831 74.4151 8.48115 74.4151 9.32507C74.4151 10.0107 74.7843 10.3008 76.5249 10.5118L79.3467 10.8547C82.8806 11.2502 84.1992 12.437 84.1992 14.6259C84.1992 17.1049 81.7466 18.74 77.6589 18.74Z" fill="url(#paint1_linear_54_1872)"/>
<path d="M59.6283 18.74C55.9098 18.74 54.1428 16.4456 54.1428 13.4919V5.26373H58.0987V12.1733C58.0987 14.3095 58.9953 15.2061 61.5007 15.2061C64.0852 15.2061 65.0082 14.204 65.0082 11.9623V5.26373H68.9641V18.4763H65.272V14.4413H65.061C64.7181 16.6566 63.1094 18.74 59.6283 18.74Z" fill="url(#paint2_linear_54_1872)"/>
<path d="M46.3579 18.7417H31.7659V15.2309L37.663 10.5406L40.543 8.73029V8.456L37.663 8.62057H32.1773V5H45.9464V8.53829L39.583 13.448L36.9773 15.0663V15.3406L39.583 15.1486H46.3579V18.7417Z" fill="white"/>
<path d="M23.1916 19.2903C18.611 19.2903 15.4841 17.0411 15.4841 12.1589C15.4841 7.77029 18.5836 5 23.1093 5C27.6076 5 30.5973 7.35886 30.5973 11.6651C30.5973 12.1589 30.5424 12.5154 30.4876 12.9817H19.2967C19.4064 15.0937 20.3938 15.9989 23.0544 15.9989C25.4956 15.9989 26.3458 15.368 26.3458 14.1886V13.9143H30.4601V14.216C30.4601 17.2057 27.5527 19.2903 23.1916 19.2903ZM23.027 8.20914C20.5858 8.20914 19.5436 9.032 19.3516 10.8149H26.6476C26.5378 9.00457 25.4407 8.20914 23.027 8.20914Z" fill="white"/>
<path d="M7.43314 19.2903C2.79771 19.2903 0.246857 17.48 0.246857 14.2983V14.216H4.36114V14.4629C4.36114 15.6971 5.12914 16.0263 7.46057 16.0263C9.65486 16.0263 10.176 15.6697 10.176 14.8469C10.176 14.0789 9.76457 13.8594 8.14629 13.64L4.27886 13.1737C1.536 12.872 0 11.6377 0 9.33371C0 6.92 2.05714 5 6.77486 5C11.2731 5 13.824 6.70057 13.824 10.0469V10.1291H9.70971V9.96457C9.70971 8.84 9.16114 8.264 6.63771 8.264C4.58057 8.264 4.05943 8.62057 4.05943 9.49829C4.05943 10.2114 4.44343 10.5131 6.25372 10.7326L9.18857 11.0891C12.864 11.5006 14.2354 12.7349 14.2354 15.0114C14.2354 17.5897 11.6846 19.2903 7.43314 19.2903Z" fill="white"/>
<defs>
<linearGradient id="paint0_linear_54_1872" x1="49.1428" y1="3.44262" x2="77.1322" y2="39.9915" gradientUnits="userSpaceOnUse">
<stop stop-color="#9982E0"/>
<stop offset="1" stop-color="#F6BD4C"/>
</linearGradient>
<linearGradient id="paint1_linear_54_1872" x1="70.512" y1="6.9709" x2="86.3739" y2="18.6816" gradientUnits="userSpaceOnUse">
<stop stop-color="#9982E0"/>
<stop offset="1" stop-color="#F6BD4C"/>
</linearGradient>
<linearGradient id="paint2_linear_54_1872" x1="54.1428" y1="7.19681" x2="70.0876" y2="20.1935" gradientUnits="userSpaceOnUse">
<stop stop-color="#9982E0"/>
<stop offset="1" stop-color="#F6BD4C"/>
</linearGradient>
</defs>
</svg>
