<svg width="40" height="32" viewBox="0 0 40 32" fill="none" xmlns="http://www.w3.org/2000/svg">
<g style="mix-blend-mode:difference">
<path d="M0.45826 16C0.45826 7.16345 7.62719 0 16.4705 0C25.3138 0 32.4828 7.16345 32.4828 16C32.4828 24.8366 25.3138 32 16.4705 32C13.321 32 10.0599 30.8258 7.58336 29.2567C4.8055 31.1815 1.62211 31.8501 -3.8147e-06 31.9311C2.08855 27.479 0.45826 20.02 0.45826 16Z" fill="url(#paint0_radial_48_381)"/>
<g style="mix-blend-mode:hard-light">
<path d="M19.8944 22.0453C19.8944 16.7433 24.1958 12.4452 29.5018 12.4452C34.8078 12.4452 39.1091 16.7433 39.1091 22.0453C39.1091 27.3472 34.8078 31.6453 29.5018 31.6453C27.6121 31.6453 25.653 30.9599 24.1671 30.0184C22.348 31.0579 20.594 31.4801 19.6195 31.7075C20.8726 29.0362 19.8944 24.4573 19.8944 22.0453Z" fill="url(#paint1_radial_48_381)"/>
</g>
</g>
<defs>
<radialGradient id="paint0_radial_48_381" cx="0" cy="0" r="1" gradientUnits="userSpaceOnUse" gradientTransform="translate(24.9035 28.2074) rotate(-120.842) scale(32.8533 173.593)">
<stop stop-color="#E2B6A0"/>
<stop offset="1" stop-color="#AEB8E0"/>
</radialGradient>
<radialGradient id="paint1_radial_48_381" cx="0" cy="0" r="1" gradientUnits="userSpaceOnUse" gradientTransform="translate(34.5615 29.4246) rotate(-120.76) scale(19.7591 104.244)">
<stop stop-color="#E2B6A0"/>
<stop offset="1" stop-color="#AEB8E0"/>
</radialGradient>
</defs>
</svg>
