<svg width="12" height="12" viewBox="0 0 12 12" fill="none" xmlns="http://www.w3.org/2000/svg">
<mask id="mask0_2126_365" style="mask-type:alpha" maskUnits="userSpaceOnUse" x="0" y="0" width="12" height="12">
<rect width="12" height="12" fill="#D9D9D9"/>
</mask>
<g mask="url(#mask0_2126_365)">
<path d="M8.44233 10.1923C7.96108 10.1923 7.54911 10.0209 7.2064 9.67821C6.8637 9.33551 6.69235 8.92354 6.69235 8.44229C6.69235 7.96105 6.8637 7.54907 7.2064 7.20636C7.54911 6.86366 7.96108 6.69231 8.44233 6.69231C8.92358 6.69231 9.33555 6.86366 9.67825 7.20636C10.021 7.54907 10.1923 7.96105 10.1923 8.44229C10.1923 8.92354 10.021 9.33551 9.67825 9.67821C9.33555 10.0209 8.92358 10.1923 8.44233 10.1923ZM3.55773 8.69227C3.07648 8.69227 2.6645 8.52092 2.3218 8.17821C1.97909 7.83551 1.80774 7.42354 1.80774 6.94229C1.80774 6.46104 1.97909 6.04907 2.3218 5.70636C2.6645 5.36366 3.07648 5.19231 3.55773 5.19231C4.03897 5.19231 4.45094 5.36366 4.79365 5.70636C5.13635 6.04907 5.3077 6.46104 5.3077 6.94229C5.3077 7.42354 5.13635 7.83551 4.79365 8.17821C4.45094 8.52092 4.03897 8.69227 3.55773 8.69227ZM5.50003 4.84612C5.01878 4.84612 4.60681 4.67477 4.2641 4.33207C3.92139 3.98937 3.75004 3.57739 3.75004 3.09615C3.75004 2.6149 3.92139 2.20292 4.2641 1.86022C4.60681 1.51752 5.01878 1.34616 5.50003 1.34616C5.98127 1.34616 6.39324 1.51752 6.73595 1.86022C7.07866 2.20292 7.25001 2.6149 7.25001 3.09615C7.25001 3.57739 7.07866 3.98937 6.73595 4.33207C6.39324 4.67477 5.98127 4.84612 5.50003 4.84612Z" fill="#F4F4F5"/>
</g>
</svg>
