<svg width="16" height="16" viewBox="0 0 16 16" fill="none" xmlns="http://www.w3.org/2000/svg">
<mask id="mask0_2126_245" style="mask-type:alpha" maskUnits="userSpaceOnUse" x="0" y="0" width="16" height="16">
<rect width="16" height="16" transform="matrix(1 0 0 -1 0 16)" fill="#D9D9D9"/>
</mask>
<g mask="url(#mask0_2126_245)">
<path d="M4.0949 4.23079L5.66028 6.95515C5.62181 6.93378 5.57694 6.91882 5.52565 6.91027C5.47437 6.90172 5.42309 6.89745 5.3718 6.89745C4.69402 6.89745 4.1186 7.13597 3.64553 7.613C3.17245 8.09002 2.93591 8.66347 2.93591 9.33333C2.93591 10.0111 3.17245 10.5865 3.64553 11.0596C4.1186 11.5327 4.69402 11.7692 5.3718 11.7692C6.04166 11.7692 6.61511 11.5327 7.09213 11.0596C7.56916 10.5865 7.80768 10.0119 7.80768 9.33557C7.80768 9.09989 7.77926 8.8812 7.72241 8.67948C7.66558 8.47778 7.58246 8.28548 7.47306 8.10257L5.24358 4.23079H4.0949ZM10.018 4.23079L11.5833 6.95515C11.5449 6.93378 11.5 6.91882 11.4487 6.91027C11.3974 6.90172 11.3462 6.89745 11.2949 6.89745C10.6171 6.89745 10.0417 7.13597 9.5686 7.613C9.09552 8.09002 8.85898 8.66347 8.85898 9.33333C8.85898 10.0154 9.09552 10.5919 9.5686 11.0628C10.0417 11.5338 10.6171 11.7692 11.2949 11.7692C11.9647 11.7692 12.5382 11.5327 13.0152 11.0596C13.4922 10.5865 13.7307 10.0119 13.7307 9.33557C13.7307 9.09989 13.7023 8.8812 13.6455 8.67948C13.5887 8.47778 13.5055 8.28548 13.3961 8.10257L11.1666 4.23079H10.018ZM5.3718 8.10255C5.71369 8.10255 6.00429 8.22221 6.2436 8.46153C6.48292 8.70085 6.60258 8.99145 6.60258 9.33333C6.60258 9.67522 6.48292 9.96582 6.2436 10.2051C6.00429 10.4445 5.71369 10.5641 5.3718 10.5641C5.02991 10.5641 4.7393 10.4445 4.49998 10.2051C4.26067 9.96582 4.14101 9.67522 4.14101 9.33333C4.14101 8.99145 4.26067 8.70085 4.49998 8.46153C4.7393 8.22221 5.02991 8.10255 5.3718 8.10255ZM11.2949 8.10255C11.6368 8.10255 11.9274 8.22221 12.1667 8.46153C12.406 8.70085 12.5256 8.99145 12.5256 9.33333C12.5256 9.67522 12.406 9.96582 12.1667 10.2051C11.9274 10.4445 11.6368 10.5641 11.2949 10.5641C10.953 10.5641 10.6624 10.4445 10.4231 10.2051C10.1837 9.96582 10.0641 9.67522 10.0641 9.33333C10.0641 8.99145 10.1837 8.70085 10.4231 8.46153C10.6624 8.22221 10.953 8.10255 11.2949 8.10255Z" fill="#A1A1AA"/>
</g>
</svg>
