<svg width="25" height="24" viewBox="0 0 25 24" fill="none" xmlns="http://www.w3.org/2000/svg">
<mask id="mask0_2126_106" style="mask-type:alpha" maskUnits="userSpaceOnUse" x="0" y="0" width="25" height="24">
<rect x="0.25" width="24" height="24" fill="#D9D9D9"/>
</mask>
<g mask="url(#mask0_2126_106)">
<path d="M19.7923 20.5769L13.5115 14.2961C13.0115 14.7089 12.4365 15.032 11.7865 15.2653C11.1365 15.4987 10.4641 15.6153 9.76922 15.6153C8.06005 15.6153 6.61354 15.0236 5.42967 13.84C4.2458 12.6564 3.65387 11.2103 3.65387 9.50157C3.65387 7.79284 4.24565 6.34616 5.42922 5.16154C6.61279 3.97694 8.05894 3.38464 9.76767 3.38464C11.4764 3.38464 12.9231 3.97658 14.1077 5.16044C15.2923 6.34431 15.8846 7.79083 15.8846 9.49999C15.8846 10.2141 15.7647 10.8961 15.525 11.5461C15.2852 12.1961 14.9653 12.7615 14.5653 13.2423L20.8461 19.5231L19.7923 20.5769ZM9.76922 14.1154C11.0577 14.1154 12.149 13.6683 13.0433 12.774C13.9375 11.8798 14.3846 10.7885 14.3846 9.49999C14.3846 8.21153 13.9375 7.12018 13.0433 6.22594C12.149 5.33171 11.0577 4.88459 9.76922 4.88459C8.48075 4.88459 7.3894 5.33171 6.49517 6.22594C5.60095 7.12018 5.15384 8.21153 5.15384 9.49999C5.15384 10.7885 5.60095 11.8798 6.49517 12.774C7.3894 13.6683 8.48075 14.1154 9.76922 14.1154Z" fill="#A1A1AA"/>
</g>
</svg>
