<svg width="25" height="24" viewBox="0 0 25 24" fill="none" xmlns="http://www.w3.org/2000/svg">
<mask id="mask0_5885_37" style="mask-type:alpha" maskUnits="userSpaceOnUse" x="0" y="0" width="25" height="24">
<rect x="0.75" width="24" height="24" fill="#D9D9D9"/>
</mask>
<g mask="url(#mask0_5885_37)">
<path d="M8.0885 18.625V5.375H12.95C13.9692 5.375 14.8907 5.69233 15.7145 6.327C16.5382 6.9615 16.95 7.816 16.95 8.8905C16.95 9.63783 16.7695 10.2471 16.4085 10.7182C16.0477 11.1894 15.6589 11.5314 15.2423 11.7442C15.7551 11.9211 16.2448 12.2708 16.7115 12.7933C17.1782 13.3158 17.4115 14.0193 17.4115 14.9038C17.4115 16.1819 16.9403 17.1217 15.998 17.723C15.0557 18.3243 14.1063 18.625 13.15 18.625H8.0885ZM10.2385 16.6328H13.0693C13.8564 16.6328 14.4128 16.4142 14.7385 15.977C15.0642 15.5398 15.227 15.1206 15.227 14.7192C15.227 14.3179 15.0642 13.8987 14.7385 13.4615C14.4128 13.0243 13.841 12.8058 13.023 12.8058H10.2385V16.6328ZM10.2385 10.875H12.8328C13.4404 10.875 13.9222 10.7013 14.278 10.3538C14.6337 10.0064 14.8115 9.59042 14.8115 9.10575C14.8115 8.59042 14.6234 8.16925 14.2473 7.84225C13.8709 7.51542 13.4097 7.352 12.8635 7.352H10.2385V10.875Z" fill="#F4F4F5"/>
</g>
</svg>
