<svg width="25" height="24" viewBox="0 0 25 24" fill="none" xmlns="http://www.w3.org/2000/svg">
<mask id="mask0_5885_32" style="mask-type:alpha" maskUnits="userSpaceOnUse" x="0" y="0" width="25" height="24">
<rect x="0.125" width="24" height="24" fill="#D9D9D9"/>
</mask>
<g mask="url(#mask0_5885_32)">
<path d="M9.43275 18.75V17.25H20.625V18.75H9.43275ZM9.43275 12.75V11.25H20.625V12.75H9.43275ZM9.43275 6.75V5.25H20.625V6.75H9.43275ZM5.2885 19.6635C4.831 19.6635 4.43942 19.5006 4.11375 19.1748C3.78792 18.8491 3.625 18.4575 3.625 18C3.625 17.5425 3.78792 17.1509 4.11375 16.8253C4.43942 16.4994 4.831 16.3365 5.2885 16.3365C5.746 16.3365 6.13758 16.4994 6.46325 16.8253C6.78908 17.1509 6.952 17.5425 6.952 18C6.952 18.4575 6.78908 18.8491 6.46325 19.1748C6.13758 19.5006 5.746 19.6635 5.2885 19.6635ZM5.2885 13.6635C4.831 13.6635 4.43942 13.5006 4.11375 13.1748C3.78792 12.8491 3.625 12.4575 3.625 12C3.625 11.5425 3.78792 11.1509 4.11375 10.8253C4.43942 10.4994 4.831 10.3365 5.2885 10.3365C5.746 10.3365 6.13758 10.4994 6.46325 10.8253C6.78908 11.1509 6.952 11.5425 6.952 12C6.952 12.4575 6.78908 12.8491 6.46325 13.1748C6.13758 13.5006 5.746 13.6635 5.2885 13.6635ZM5.2885 7.6635C4.831 7.6635 4.43942 7.50058 4.11375 7.17475C3.78792 6.84908 3.625 6.4575 3.625 6C3.625 5.5425 3.78792 5.15092 4.11375 4.82525C4.43942 4.49942 4.831 4.3365 5.2885 4.3365C5.746 4.3365 6.13758 4.49942 6.46325 4.82525C6.78908 5.15092 6.952 5.5425 6.952 6C6.952 6.4575 6.78908 6.84908 6.46325 7.17475C6.13758 7.50058 5.746 7.6635 5.2885 7.6635Z" fill="#F4F4F5"/>
</g>
</svg>
