<svg width="25" height="24" viewBox="0 0 25 24" fill="none" xmlns="http://www.w3.org/2000/svg">
<mask id="mask0_5885_4" style="mask-type:alpha" maskUnits="userSpaceOnUse" x="0" y="0" width="25" height="24">
<rect x="0.75" width="24" height="24" fill="#D9D9D9"/>
</mask>
<g mask="url(#mask0_5885_4)">
<path d="M6.09625 20.125V18.625H19.4038V20.125H6.09625ZM12.75 16.5287C11.1948 16.5287 9.98108 16.0567 9.10875 15.1125C8.23625 14.1683 7.8 12.9032 7.8 11.3172V3.4135H9.65375V11.4095C9.65375 12.4198 9.92233 13.2295 10.4595 13.8385C10.9967 14.4475 11.7602 14.752 12.75 14.752C13.7398 14.752 14.5033 14.4475 15.0405 13.8385C15.5777 13.2295 15.8462 12.4198 15.8462 11.4095V3.4135H17.7V11.3172C17.7 12.9032 17.2638 14.1683 16.3912 15.1125C15.5189 16.0567 14.3052 16.5287 12.75 16.5287Z" fill="#F4F4F5"/>
</g>
</svg>
