<svg width="24" height="24" viewBox="0 0 24 24" fill="none" xmlns="http://www.w3.org/2000/svg">
<mask id="mask0_4873_25190" style="mask-type:alpha" maskUnits="userSpaceOnUse" x="0" y="0" width="24" height="24">
<rect width="24" height="24" fill="#D9D9D9"/>
</mask>
<g mask="url(#mask0_4873_25190)">
<path d="M6.16585 14.5547L5.3081 16.9817C5.25427 17.1265 5.16993 17.2377 5.0551 17.3154C4.94043 17.3929 4.81068 17.4317 4.66585 17.4317C4.41968 17.4317 4.22827 17.3313 4.0916 17.1307C3.9551 16.93 3.93235 16.7169 4.02335 16.4914L7.4351 7.28166C7.48893 7.13682 7.57735 7.02307 7.70035 6.94041C7.82352 6.85774 7.95752 6.81641 8.10235 6.81641H8.63885C8.78368 6.81641 8.92018 6.85774 9.04835 6.94041C9.17652 7.02307 9.2676 7.13682 9.3216 7.28166L12.7619 16.4972C12.8528 16.7227 12.8259 16.9348 12.6811 17.1337C12.5363 17.3323 12.3459 17.4317 12.1099 17.4317C11.965 17.4317 11.832 17.3887 11.7109 17.3029C11.5897 17.2169 11.5022 17.1015 11.4484 16.9567L10.6061 14.5547H6.16585ZM6.62535 13.3009H10.1409L8.41585 8.41441H8.33485L6.62535 13.3009ZM16.3849 17.6722C15.5734 17.6722 14.9256 17.4493 14.4416 17.0037C13.9576 16.5582 13.7156 15.9861 13.7156 15.2874C13.7156 14.5669 13.9983 13.982 14.5638 13.5327C15.1292 13.0833 15.8554 12.8587 16.7426 12.8587C17.1131 12.8587 17.4817 12.8936 17.8483 12.9634C18.215 13.0332 18.5349 13.1297 18.8081 13.2529V12.8087C18.8081 12.242 18.6404 11.799 18.3051 11.4797C17.9699 11.1605 17.5029 11.0009 16.9041 11.0009C16.6413 11.0009 16.3826 11.0416 16.1281 11.1229C15.8738 11.2044 15.6402 11.3202 15.4274 11.4702C15.2619 11.5983 15.1041 11.6406 14.9541 11.5969C14.8041 11.5534 14.6836 11.4746 14.5926 11.3604C14.5016 11.2464 14.4593 11.117 14.4658 10.9722C14.4722 10.8272 14.551 10.7008 14.7024 10.5932C15.0164 10.3585 15.3657 10.1851 15.7503 10.0729C16.135 9.96074 16.5248 9.90466 16.9196 9.90466C17.9734 9.90466 18.758 10.1627 19.2733 10.6787C19.7887 11.1948 20.0464 11.9689 20.0464 13.0009V16.8202C20.0464 16.992 19.9848 17.1368 19.8618 17.2547C19.7388 17.3727 19.5914 17.4317 19.4196 17.4317C19.2478 17.4317 19.1028 17.3702 18.9848 17.2472C18.867 17.124 18.8081 16.9765 18.8081 16.8047V16.4587H18.7081C18.4491 16.8612 18.1244 17.164 17.7341 17.3672C17.3436 17.5705 16.8939 17.6722 16.3849 17.6722ZM16.5696 16.5914C17.2043 16.5914 17.7385 16.3689 18.1723 15.9239C18.6063 15.4791 18.8233 14.9387 18.8233 14.3029C18.59 14.1696 18.3028 14.0654 17.9619 13.9904C17.6209 13.9154 17.2856 13.8779 16.9561 13.8779C16.3586 13.8779 15.8874 14.0026 15.5426 14.2519C15.1978 14.5012 15.0254 14.8464 15.0254 15.2874C15.0254 15.6592 15.1699 15.9695 15.4589 16.2182C15.748 16.467 16.1183 16.5914 16.5696 16.5914Z" fill="#A1A1AA"/>
</g>
</svg>
