<svg width="24" height="24" viewBox="0 0 24 24" fill="none" xmlns="http://www.w3.org/2000/svg">
<mask id="mask0_4873_25199" style="mask-type:alpha" maskUnits="userSpaceOnUse" x="0" y="0" width="24" height="24">
<rect width="24" height="24" fill="#D9D9D9"/>
</mask>
<g mask="url(#mask0_4873_25199)">
<path d="M5.30775 20.5C4.80258 20.5 4.375 20.325 4.025 19.975C3.675 19.625 3.5 19.1974 3.5 18.6923V5.30775C3.5 4.80258 3.675 4.375 4.025 4.025C4.375 3.675 4.80258 3.5 5.30775 3.5H18.6923C19.1974 3.5 19.625 3.675 19.975 4.025C20.325 4.375 20.5 4.80258 20.5 5.30775V18.6923C20.5 19.1974 20.325 19.625 19.975 19.975C19.625 20.325 19.1974 20.5 18.6923 20.5H5.30775ZM5.30775 19H18.6923C18.7692 19 18.8398 18.9679 18.9038 18.9038C18.9679 18.8398 19 18.7692 19 18.6923V5.30775C19 5.23075 18.9679 5.16025 18.9038 5.09625C18.8398 5.03208 18.7692 5 18.6923 5H5.30775C5.23075 5 5.16025 5.03208 5.09625 5.09625C5.03208 5.16025 5 5.23075 5 5.30775V18.6923C5 18.7692 5.03208 18.8398 5.09625 18.9038C5.16025 18.9679 5.23075 19 5.30775 19ZM8.5 13.9423H9.5C9.76417 13.9423 9.98725 13.8512 10.1693 13.6692C10.3513 13.4872 10.4423 13.2642 10.4423 13V12.5C10.4423 12.3795 10.3987 12.2757 10.3115 12.1885C10.2243 12.1013 10.1205 12.0577 10 12.0577C9.8795 12.0577 9.77567 12.1013 9.6885 12.1885C9.60133 12.2757 9.55775 12.3795 9.55775 12.5V13C9.55775 13.0128 9.55133 13.0257 9.5385 13.0385C9.52567 13.0513 9.51283 13.0577 9.5 13.0577H8.5C8.48717 13.0577 8.47433 13.0513 8.4615 13.0385C8.44867 13.0257 8.44225 13.0128 8.44225 13V11C8.44225 10.9872 8.44708 10.9743 8.45675 10.9615C8.46642 10.9487 8.47767 10.9423 8.4905 10.9423H9.9905C10.111 10.9423 10.2148 10.8987 10.302 10.8115C10.3892 10.7243 10.4328 10.6205 10.4328 10.5C10.4328 10.3795 10.3892 10.2757 10.302 10.1885C10.2148 10.1013 10.111 10.0578 9.9905 10.0578H8.5C8.23583 10.0578 8.01275 10.1487 7.83075 10.3307C7.64875 10.5127 7.55775 10.7358 7.55775 11V13C7.55775 13.2642 7.64875 13.4872 7.83075 13.6692C8.01275 13.8512 8.23583 13.9423 8.5 13.9423ZM12 13.9423C12.1205 13.9423 12.2243 13.8987 12.3115 13.8115C12.3987 13.7243 12.4423 13.6205 12.4423 13.5V10.5C12.4423 10.3795 12.3987 10.2757 12.3115 10.1885C12.2243 10.1013 12.1205 10.0578 12 10.0578C11.8795 10.0578 11.7757 10.1013 11.6885 10.1885C11.6013 10.2757 11.5577 10.3795 11.5577 10.5V13.5C11.5577 13.6205 11.6013 13.7243 11.6885 13.8115C11.7757 13.8987 11.8795 13.9423 12 13.9423ZM14 13.9423C14.1205 13.9423 14.2243 13.8987 14.3115 13.8115C14.3987 13.7243 14.4423 13.6205 14.4423 13.5V12.4423H15.5C15.6205 12.4423 15.7243 12.3987 15.8115 12.3115C15.8987 12.2243 15.9423 12.1205 15.9423 12C15.9423 11.8795 15.8987 11.7757 15.8115 11.6885C15.7243 11.6013 15.6205 11.5577 15.5 11.5577H14.4423V10.9423H16C16.1205 10.9423 16.2243 10.8987 16.3115 10.8115C16.3987 10.7243 16.4423 10.6205 16.4423 10.5C16.4423 10.3795 16.3987 10.2757 16.3115 10.1885C16.2243 10.1013 16.1205 10.0578 16 10.0578H14C13.8795 10.0578 13.7757 10.1013 13.6885 10.1885C13.6013 10.2757 13.5577 10.3795 13.5577 10.5V13.5C13.5577 13.6205 13.6013 13.7243 13.6885 13.8115C13.7757 13.8987 13.8795 13.9423 14 13.9423Z" fill="#A1A1AA"/>
</g>
</svg>
