<svg width="25" height="24" viewBox="0 0 25 24" fill="none" xmlns="http://www.w3.org/2000/svg">
<mask id="mask0_5885_16" style="mask-type:alpha" maskUnits="userSpaceOnUse" x="0" y="0" width="25" height="24">
<rect x="0.375" width="24" height="24" fill="#D9D9D9"/>
</mask>
<g mask="url(#mask0_5885_16)">
<path d="M3.875 21.5V20.3078H6.375V19.25H4.875V18.0577H6.375V17H3.875V15.8077H7.56725V18.0577L6.72125 18.6923L7.56725 19.25V21.5H3.875ZM3.875 14.8463V11.4038H6.375V10.3462H3.875V9.15375H7.56725V12.5963H5.06725V13.6538H7.56725V14.8463H3.875ZM5.375 8.19225V3.69225H3.875V2.5H6.56725V8.19225H5.375ZM9.68275 18.75V17.25H20.875V18.75H9.68275ZM9.68275 12.75V11.25H20.875V12.75H9.68275ZM9.68275 6.75V5.25H20.875V6.75H9.68275Z" fill="#F4F4F5"/>
</g>
</svg>
