<svg width="25" height="24" viewBox="0 0 25 24" fill="none" xmlns="http://www.w3.org/2000/svg">
<mask id="mask0_5885_7" style="mask-type:alpha" maskUnits="userSpaceOnUse" x="0" y="0" width="25" height="24">
<rect x="0.25" width="24" height="24" fill="#D9D9D9"/>
</mask>
<g mask="url(#mask0_5885_7)">
<path d="M12.4 19.6923C11.2232 19.6923 10.1815 19.3589 9.275 18.6923C8.36867 18.0256 7.70525 17.1128 7.28475 15.9538L8.8885 15.2635C9.16667 16.0443 9.6045 16.6867 10.202 17.1905C10.7993 17.6943 11.5423 17.9463 12.4308 17.9463C13.2078 17.9463 13.9244 17.7508 14.5807 17.3598C15.2372 16.9686 15.5655 16.3487 15.5655 15.5C15.5655 15.123 15.5055 14.7968 15.3855 14.5213C15.2657 14.2456 15.0962 13.9885 14.877 13.75H16.927C17.0487 13.9705 17.1432 14.2256 17.2105 14.5153C17.2778 14.8051 17.3115 15.1333 17.3115 15.5C17.3115 16.8372 16.8247 17.8702 15.851 18.599C14.8772 19.3278 13.7268 19.6923 12.4 19.6923ZM2.5 11.75V10.25H22V11.75H2.5ZM12.3 4.19625C13.2975 4.19625 14.1623 4.427 14.8943 4.8885C15.6263 5.35 16.2173 6.05892 16.6673 7.01525L15.073 7.73075C14.8718 7.26025 14.5478 6.84458 14.101 6.48375C13.6542 6.12275 13.0641 5.94225 12.3308 5.94225C11.4744 5.94225 10.7892 6.16217 10.275 6.602C9.76083 7.04167 9.514 7.591 9.5345 8.25H7.7885C7.75133 7.16417 8.14783 6.21708 8.978 5.40875C9.808 4.60042 10.9153 4.19625 12.3 4.19625Z" fill="#F4F4F5"/>
</g>
</svg>
