<svg width="24" height="24" viewBox="0 0 24 24" fill="none" xmlns="http://www.w3.org/2000/svg">
<mask id="mask0_4873_25205" style="mask-type:alpha" maskUnits="userSpaceOnUse" x="0" y="0" width="24" height="24">
<rect width="24" height="24" fill="#D9D9D9"/>
</mask>
<g mask="url(#mask0_4873_25205)">
<path d="M9.04792 15.5379L8.17492 19.0052C8.13776 19.1705 8.05826 19.3006 7.93642 19.3954C7.81459 19.4904 7.66592 19.5379 7.49042 19.5379C7.25709 19.5379 7.06601 19.4449 6.91717 19.2589C6.76851 19.0731 6.72626 18.8687 6.79042 18.6457L7.56717 15.5379H4.71717C4.46717 15.5379 4.26626 15.4424 4.11442 15.2514C3.96242 15.0603 3.91851 14.8449 3.98267 14.6052C4.02634 14.4295 4.11576 14.2911 4.25092 14.1899C4.38626 14.0886 4.54167 14.0379 4.71717 14.0379H7.94217L8.96142 9.96094H6.11142C5.86142 9.96094 5.66051 9.86544 5.50867 9.67444C5.35667 9.48344 5.31276 9.26802 5.37692 9.02819C5.42042 8.85269 5.50984 8.71427 5.64517 8.61294C5.78034 8.5116 5.93576 8.46094 6.11142 8.46094H9.33642L10.2097 4.99369C10.2468 4.82835 10.3263 4.69827 10.4479 4.60344C10.5698 4.50844 10.7185 4.46094 10.8942 4.46094C11.1275 4.46094 11.3185 4.55394 11.4672 4.73994C11.6158 4.92577 11.6582 5.13019 11.5942 5.35319L10.8172 8.46094H14.9519L15.8249 4.99369C15.8621 4.82835 15.9416 4.69827 16.0634 4.60344C16.1853 4.50844 16.3339 4.46094 16.5094 4.46094C16.7428 4.46094 16.9338 4.55394 17.0827 4.73994C17.2313 4.92577 17.2736 5.13019 17.2094 5.35319L16.4327 8.46094H19.2827C19.5327 8.46094 19.7336 8.55644 19.8854 8.74744C20.0374 8.9386 20.0813 9.15402 20.0172 9.39369C19.9735 9.56935 19.8841 9.70777 19.7489 9.80894C19.6136 9.91027 19.4582 9.96094 19.2827 9.96094H16.0577L15.0384 14.0379H17.8884C18.1384 14.0379 18.3393 14.1334 18.4912 14.3244C18.6432 14.5154 18.6871 14.7309 18.6229 14.9707C18.5794 15.1462 18.49 15.2846 18.3547 15.3859C18.2195 15.4873 18.0641 15.5379 17.8884 15.5379H14.6634L13.7902 19.0052C13.753 19.1705 13.6736 19.3006 13.5519 19.3954C13.4301 19.4904 13.2813 19.5379 13.1057 19.5379C12.8723 19.5379 12.6813 19.4449 12.5327 19.2589C12.384 19.0731 12.3417 18.8687 12.4057 18.6457L13.1827 15.5379H9.04792ZM9.42292 14.0379H13.5577L14.5769 9.96094H10.4422L9.42292 14.0379Z" fill="#A1A1AA"/>
</g>
</svg>
