<svg width="18" height="19" viewBox="0 0 18 19" fill="none" xmlns="http://www.w3.org/2000/svg">
<path d="M13.8846 18.3846C12.9221 18.3846 12.0982 18.0419 11.4127 17.3565C10.7273 16.6711 10.3846 15.8471 10.3846 14.8846C10.3846 13.9221 10.7273 13.0982 11.4127 12.4128C12.0982 11.7274 12.9221 11.3847 13.8846 11.3847C14.8471 11.3847 15.671 11.7274 16.3564 12.4128C17.0419 13.0982 17.3846 13.9221 17.3846 14.8846C17.3846 15.8471 17.0419 16.6711 16.3564 17.3565C15.671 18.0419 14.8471 18.3846 13.8846 18.3846ZM4.11539 15.3846C3.15289 15.3846 2.32894 15.0419 1.64354 14.3565C0.958126 13.6711 0.615417 12.8471 0.615417 11.8846C0.615417 10.9221 0.958126 10.0982 1.64354 9.41275C2.32894 8.72735 3.15289 8.38465 4.11539 8.38465C5.07788 8.38465 5.90183 8.72735 6.58724 9.41275C7.27264 10.0982 7.61534 10.9221 7.61534 11.8846C7.61534 12.8471 7.27264 13.6711 6.58724 14.3565C5.90183 15.0419 5.07788 15.3846 4.11539 15.3846ZM7.99999 7.69228C7.03751 7.69228 6.21356 7.34958 5.52814 6.66418C4.84273 5.97876 4.50002 5.15481 4.50002 4.19233C4.50002 3.22983 4.84273 2.40588 5.52814 1.72048C6.21356 1.03506 7.03751 0.692352 7.99999 0.692352C8.96248 0.692352 9.78643 1.03506 10.4718 1.72048C11.1573 2.40588 11.5 3.22983 11.5 4.19233C11.5 5.15481 11.1573 5.97876 10.4718 6.66418C9.78643 7.34958 8.96248 7.69228 7.99999 7.69228Z" fill="#F4F4F5"/>
</svg>
