<svg width="14" height="14" viewBox="0 0 14 14" fill="none" xmlns="http://www.w3.org/2000/svg">
<mask id="mask0_10115_15647" style="mask-type:alpha" maskUnits="userSpaceOnUse" x="0" y="0" width="14" height="14">
<rect width="14" height="14" fill="#D9D9D9"/>
</mask>
<g mask="url(#mask0_10115_15647)">
<path d="M6.35104 9.98293H7.64959V7.64959H9.98293V6.35104H7.64959V4.0177H6.35104V6.35104H4.0177V7.64959H6.35104V9.98293ZM7.00031 13.1139C6.14941 13.1139 5.35264 12.9537 4.61002 12.6332C3.86739 12.3128 3.2214 11.8779 2.67207 11.3286C2.12272 10.7792 1.68783 10.1332 1.36739 9.39061C1.04694 8.64799 0.886719 7.85122 0.886719 7.00031C0.886719 6.14941 1.04694 5.35264 1.36739 4.61002C1.68783 3.86739 2.12272 3.2214 2.67207 2.67207C3.2214 2.12272 3.86739 1.68783 4.61002 1.36739C5.35264 1.04694 6.14941 0.886719 7.00031 0.886719C7.85122 0.886719 8.64799 1.04694 9.39061 1.36739C10.1332 1.68783 10.7792 2.12272 11.3286 2.67207C11.8779 3.2214 12.3128 3.86739 12.6332 4.61002C12.9537 5.35264 13.1139 6.14941 13.1139 7.00031C13.1139 7.85122 12.9537 8.64799 12.6332 9.39061C12.3128 10.1332 11.8779 10.7792 11.3286 11.3286C10.7792 11.8779 10.1332 12.3128 9.39061 12.6332C8.64799 12.9537 7.85122 13.1139 7.00031 13.1139Z" fill="#A3E635"/>
</g>
</svg>
