<svg width="16" height="20" viewBox="0 0 16 20" fill="none" xmlns="http://www.w3.org/2000/svg">
<path d="M0.500031 16.8846V15.3847H2.30773V7.92308C2.30773 6.57821 2.72279 5.38912 3.55291 4.35578C4.38304 3.32245 5.44875 2.66156 6.75003 2.37311V0.500031H9.24998V2.37311C10.5513 2.66156 11.617 3.32245 12.4471 4.35578C13.2772 5.38912 13.6923 6.57821 13.6923 7.92308V15.3847H15.5V16.8846H0.500031ZM7.99831 19.6923C7.50072 19.6923 7.07533 19.5153 6.72213 19.1613C6.36893 18.8073 6.19233 18.3817 6.19233 17.8846H9.80768C9.80768 18.3833 9.63051 18.8093 9.27618 19.1625C8.92185 19.5157 8.49589 19.6923 7.99831 19.6923Z" fill="#F4F4F5"/>
</svg>
