<svg width="49" height="13" viewBox="0 0 49 13" fill="none" xmlns="http://www.w3.org/2000/svg">
<path d="M6.00002 12.6538L0.346191 7.00002L6.00002 1.34619L7.05384 2.40002L2.45384 7.00002L7.05384 11.6L6.00002 12.6538Z" fill="#ffffff"/>
<path d="M13.4375 12.5V1.22656H17.75C19.8203 1.22656 21.0859 2.3125 21.0859 4.03125V4.04688C21.0859 5.21094 20.2266 6.27344 19.1406 6.46875V6.59375C20.6797 6.78906 21.6562 7.84375 21.6562 9.32812V9.34375C21.6562 11.3203 20.2344 12.5 17.8359 12.5H13.4375ZM17.4531 2.46875H14.8438V6.08594H17.0938C18.7969 6.08594 19.6641 5.47656 19.6641 4.28906V4.27344C19.6641 3.13281 18.8516 2.46875 17.4531 2.46875ZM17.4922 7.29688H14.8438V11.2578H17.625C19.3203 11.2578 20.2109 10.5703 20.2109 9.27344V9.25781C20.2109 7.96094 19.2891 7.29688 17.4922 7.29688ZM26.0938 12.6484C24.4922 12.6484 23.2812 11.6797 23.2812 10.1484V10.1328C23.2812 8.63281 24.3906 7.76562 26.3516 7.64844L28.7656 7.5V6.73438C28.7656 5.69531 28.1328 5.13281 26.875 5.13281C25.8672 5.13281 25.2031 5.50781 24.9844 6.16406L24.9766 6.1875H23.6172L23.625 6.14062C23.8438 4.82031 25.125 3.92969 26.9219 3.92969C28.9766 3.92969 30.125 4.98438 30.125 6.73438V12.5H28.7656V11.2578H28.6406C28.1094 12.1562 27.2266 12.6484 26.0938 12.6484ZM24.6719 10.1172C24.6719 10.9688 25.3984 11.4688 26.375 11.4688C27.7578 11.4688 28.7656 10.5625 28.7656 9.35938V8.59375L26.5156 8.73438C25.2344 8.8125 24.6719 9.26562 24.6719 10.1016V10.1172ZM36.0547 12.6484C33.6953 12.6484 32.1875 10.9375 32.1875 8.26562V8.25C32.1875 5.63281 33.6875 3.92969 36.0469 3.92969C38.0938 3.92969 39.3203 5.10938 39.5703 6.60938L39.5781 6.65625H38.2266L38.2188 6.63281C38.0078 5.80469 37.2578 5.13281 36.0469 5.13281C34.5312 5.13281 33.5781 6.35156 33.5781 8.25V8.26562C33.5781 10.2031 34.5469 11.4453 36.0469 11.4453C37.1797 11.4453 37.8984 10.9453 38.2109 10.0078L38.2266 9.96094L39.5703 9.95312L39.5547 10.0391C39.2109 11.5625 38.0781 12.6484 36.0547 12.6484ZM41.6406 12.5V0.734375H43V7.75781H43.125L46.7656 4.07812H48.4141L44.7422 7.61719L48.6562 12.5H46.9453L43.7891 8.53906L43 9.30469V12.5H41.6406Z" fill="#ffffff"/>
</svg>
