<svg width="24" height="24" viewBox="0 0 24 24" fill="none" xmlns="http://www.w3.org/2000/svg">
<mask id="mask0_9207_20576" style="mask-type:alpha" maskUnits="userSpaceOnUse" x="0" y="0" width="24" height="24">
<rect width="24" height="24" fill="#D9D9D9"/>
</mask>
<g mask="url(#mask0_9207_20576)">
<path d="M4.50003 18.8846V17.3846H6.30773V9.92305C6.30773 8.57818 6.72279 7.38908 7.55291 6.35575C8.38304 5.32242 9.44875 4.66153 10.75 4.37308V2.5H13.25V4.37308C14.5513 4.66153 15.617 5.32242 16.4471 6.35575C17.2772 7.38908 17.6923 8.57818 17.6923 9.92305V17.3846H19.5V18.8846H4.50003ZM11.9983 21.6923C11.5007 21.6923 11.0753 21.5153 10.7221 21.1613C10.3689 20.8073 10.1923 20.3817 10.1923 19.8846H13.8077C13.8077 20.3833 13.6305 20.8093 13.2762 21.1625C12.9218 21.5157 12.4959 21.6923 11.9983 21.6923ZM7.80768 17.3846H16.1923V9.92305C16.1923 8.76535 15.783 7.77721 14.9644 6.95863C14.1458 6.14003 13.1577 5.73073 12 5.73073C10.8423 5.73073 9.85416 6.14003 9.03558 6.95863C8.21698 7.77721 7.80768 8.76535 7.80768 9.92305V17.3846Z" fill="#F4F4F5"/>
</g>
</svg>
