<svg width="24" height="24" viewBox="0 0 24 24" fill="none" xmlns="http://www.w3.org/2000/svg">
<mask id="mask0_9207_20579" style="mask-type:alpha" maskUnits="userSpaceOnUse" x="0" y="0" width="24" height="24">
<rect width="24" height="24" fill="#D9D9D9"/>
</mask>
<g mask="url(#mask0_9207_20579)">
<path d="M11.9983 21.6923C11.5007 21.6923 11.0753 21.5153 10.7221 21.1613C10.3689 20.8073 10.1923 20.3817 10.1923 19.8846H13.8077C13.8077 20.3833 13.6305 20.8093 13.2762 21.1625C12.9218 21.5157 12.4959 21.6923 11.9983 21.6923ZM4.50003 18.8846V17.3846H6.30773V9.92305C6.30773 8.57818 6.72279 7.38908 7.55291 6.35575C8.38304 5.32242 9.44875 4.66153 10.75 4.37308V2.5H13.25V3.94998C13.0859 4.24613 12.9558 4.54741 12.8596 4.85383C12.7635 5.16023 12.7045 5.47817 12.6827 5.80765C12.5689 5.78713 12.458 5.76918 12.3499 5.7538C12.2418 5.73842 12.1252 5.73073 12 5.73073C10.8423 5.73073 9.85416 6.14003 9.03558 6.95863C8.21698 7.77721 7.80768 8.76535 7.80768 9.92305V17.3846H16.1923V11.1327C16.4218 11.2148 16.6641 11.2789 16.9192 11.325C17.1743 11.3712 17.432 11.391 17.6923 11.3846V17.3846H19.5V18.8846H4.50003ZM17.4819 9.20193C16.7183 9.20193 16.0689 8.93468 15.5336 8.40018C14.9984 7.86568 14.7308 7.21663 14.7308 6.45305C14.7308 5.68948 14.998 5.04008 15.5325 4.50483C16.067 3.96958 16.716 3.70195 17.4796 3.70195C18.2432 3.70195 18.8926 3.9692 19.4278 4.5037C19.9631 5.0382 20.2307 5.68723 20.2307 6.4508C20.2307 7.21437 19.9635 7.86378 19.429 8.39903C18.8945 8.93429 18.2454 9.20193 17.4819 9.20193Z" fill="#F4F4F5"/>
</g>
</svg>
