<svg width="20" height="20" viewBox="0 0 20 20" fill="none" xmlns="http://www.w3.org/2000/svg">
<path d="M17.5717 19.537L11.1728 13.1381C10.6822 13.5004 10.1143 13.7888 9.46902 14.0033C8.82372 14.2178 8.1297 14.325 7.38695 14.325C5.4855 14.325 3.87263 13.6629 2.54835 12.3386C1.22406 11.0143 0.56192 9.40146 0.56192 7.50001C0.56192 5.59856 1.22406 3.9857 2.54835 2.66141C3.87263 1.33713 5.4855 0.674988 7.38695 0.674988C9.28839 0.674988 10.9013 1.33713 12.2255 2.66141C13.5498 3.9857 14.212 5.59856 14.212 7.50001C14.212 8.25218 14.1047 8.9462 13.8902 9.58209C13.6757 10.218 13.3873 10.7765 13.025 11.2576L19.4381 17.6848L17.5717 19.537ZM7.38695 11.675C8.55216 11.675 9.5393 11.2704 10.3483 10.4614C11.1574 9.65235 11.5619 8.66523 11.5619 7.50001C11.5619 6.3348 11.1574 5.34766 10.3483 4.53861C9.5393 3.72956 8.55216 3.32504 7.38695 3.32504C6.22173 3.32504 5.2346 3.72956 4.42555 4.53861C3.6165 5.34766 3.21197 6.3348 3.21197 7.50001C3.21197 8.66523 3.6165 9.65236 4.42555 10.4614C5.2346 11.2705 6.22173 11.675 7.38695 11.675Z" fill="#F4F4F5"/>
</svg>
