<svg width="20" height="16" viewBox="0 0 20 16" fill="none" xmlns="http://www.w3.org/2000/svg">
<path d="M15.9615 8.75002V7.25002H19.577V8.75002H15.9615ZM17.1038 15.4808L14.2115 13.3115L15.123 12.1155L18.0153 14.2845L17.1038 15.4808ZM15.0845 3.84627L14.173 2.65002L17.0653 0.480774L17.977 1.67702L15.0845 3.84627ZM3.25 14.4808V10.577H0.423004V5.42302H6.09625L10.577 2.75002V13.25L6.09625 10.577H4.75V14.4808H3.25ZM9.077 10.5848V5.41527L6.5115 6.92302H1.923V9.07702H6.5115L9.077 10.5848ZM11.9615 11.1193V4.88077C12.3538 5.23594 12.6698 5.68336 12.9095 6.22302C13.1493 6.76286 13.2693 7.35519 13.2693 8.00002C13.2693 8.64486 13.1493 9.23719 12.9095 9.77702C12.6698 10.3167 12.3538 10.7641 11.9615 11.1193Z" fill="#F4F4F5"/>
</svg>
