<svg width="14" height="13" viewBox="0 0 14 13" fill="none" xmlns="http://www.w3.org/2000/svg">
<path d="M9.51509 6.64865L8.76639 5.89995C8.86639 5.3478 8.70891 4.85144 8.29396 4.41085C7.87899 3.97025 7.3698 3.79995 6.76639 3.89995L6.01769 3.15125C6.16811 3.08373 6.32239 3.03309 6.48051 2.99933C6.63862 2.96556 6.81169 2.94868 6.99972 2.94868C7.75612 2.94868 8.39821 3.21257 8.92599 3.74035C9.45377 4.26813 9.71766 4.91021 9.71766 5.66661C9.71766 5.85465 9.70078 6.02986 9.66701 6.19225C9.63325 6.35464 9.58261 6.50677 9.51509 6.64865ZM11.6356 8.72301L10.8997 8.03328C11.3219 7.71106 11.6969 7.35828 12.0247 6.97495C12.3525 6.59161 12.6331 6.1555 12.8664 5.66661C12.3108 4.54439 11.5136 3.65272 10.4747 2.99161C9.43584 2.3305 8.2775 1.99995 6.99972 1.99995C6.6775 1.99995 6.36084 2.02217 6.04972 2.06661C5.73861 2.11106 5.43306 2.17773 5.13306 2.26661L4.35616 1.48971C4.77752 1.32219 5.20786 1.19869 5.64717 1.1192C6.08649 1.03971 6.53734 0.999963 6.99972 0.999963C8.56211 0.999963 9.97108 1.43073 11.2266 2.29226C12.4822 3.15381 13.398 4.27859 13.9741 5.66661C13.727 6.26234 13.408 6.81831 13.017 7.33455C12.626 7.85078 12.1655 8.3136 11.6356 8.72301ZM12.1741 12.5794L9.47666 9.90248C9.13478 10.029 8.75594 10.1324 8.34013 10.2127C7.9243 10.2931 7.4775 10.3333 6.99972 10.3333C5.43307 10.3333 4.0241 9.9025 2.77282 9.04096C1.52155 8.17942 0.605735 7.05464 0.0253906 5.66661C0.271546 5.07772 0.589496 4.52836 0.979241 4.01853C1.36899 3.50871 1.79805 3.06662 2.26642 2.69226L0.420257 0.825597L1.12282 0.123047L12.8766 11.8768L12.1741 12.5794ZM2.96897 3.3948C2.61684 3.67514 2.27432 4.01211 1.94141 4.40571C1.6085 4.7993 1.33905 5.2196 1.13306 5.66661C1.68861 6.78884 2.48584 7.6805 3.52472 8.34161C4.56361 9.00273 5.72195 9.33328 6.99972 9.33328C7.30315 9.33328 7.60529 9.30764 7.90616 9.25635C8.20701 9.20507 8.46214 9.15208 8.67154 9.09738L7.82794 8.23326C7.71426 8.27941 7.58264 8.31616 7.43306 8.34351C7.28349 8.37087 7.13905 8.38455 6.99972 8.38455C6.24332 8.38455 5.60124 8.12066 5.07346 7.59288C4.54568 7.0651 4.28179 6.42301 4.28179 5.66661C4.28179 5.53157 4.29547 5.39033 4.32282 5.2429C4.35018 5.09545 4.38693 4.96062 4.43307 4.8384L2.96897 3.3948Z" fill="#F4F4F5"/>
</svg>
