<svg width="16" height="17" viewBox="0 0 16 17" fill="none" xmlns="http://www.w3.org/2000/svg">
<mask id="mask0_205_6572" style="mask-type:alpha" maskUnits="userSpaceOnUse" x="0" y="0" width="16" height="17">
<rect y="0.5" width="16" height="16" fill="#D9D9D9"/>
</mask>
<g mask="url(#mask0_205_6572)">
<path d="M8.00124 10.8846C8.75663 10.8846 9.39821 10.6202 9.92599 10.0914C10.4538 9.56263 10.7177 8.92053 10.7177 8.16513C10.7177 7.40974 10.4533 6.76816 9.92449 6.24038C9.3957 5.71261 8.75361 5.44872 7.99821 5.44872C7.24282 5.44872 6.60124 5.71311 6.07346 6.24188C5.54568 6.77067 5.28179 7.41277 5.28179 8.16817C5.28179 8.92356 5.54618 9.56514 6.07496 10.0929C6.60375 10.6207 7.24584 10.8846 8.00124 10.8846ZM7.99972 9.96665C7.49972 9.96665 7.07472 9.79165 6.72472 9.44165C6.37472 9.09165 6.19972 8.66665 6.19972 8.16665C6.19972 7.66665 6.37472 7.24165 6.72472 6.89165C7.07472 6.54165 7.49972 6.36665 7.99972 6.36665C8.49972 6.36665 8.92472 6.54165 9.27472 6.89165C9.62472 7.24165 9.79973 7.66665 9.79973 8.16665C9.79973 8.66665 9.62472 9.09165 9.27472 9.44165C8.92472 9.79165 8.49972 9.96665 7.99972 9.96665ZM8.00064 12.8333C6.46756 12.8333 5.07068 12.4104 3.80999 11.5647C2.54931 10.719 1.62111 9.58631 1.02539 8.16665C1.62111 6.74699 2.54901 5.61431 3.80909 4.76858C5.06916 3.92286 6.46573 3.5 7.99881 3.5C9.53189 3.5 10.9288 3.92286 12.1895 4.76858C13.4501 5.61431 14.3783 6.74699 14.9741 8.16665C14.3783 9.58631 13.4504 10.719 12.1904 11.5647C10.9303 12.4104 9.53372 12.8333 8.00064 12.8333ZM7.99972 11.8333C9.25528 11.8333 10.4081 11.5028 11.4581 10.8417C12.5081 10.1805 13.3108 9.28887 13.8664 8.16665C13.3108 7.04443 12.5081 6.15276 11.4581 5.49165C10.4081 4.83054 9.25528 4.49998 7.99972 4.49998C6.74417 4.49998 5.59139 4.83054 4.54139 5.49165C3.49139 6.15276 2.68861 7.04443 2.13306 8.16665C2.68861 9.28887 3.49139 10.1805 4.54139 10.8417C5.59139 11.5028 6.74417 11.8333 7.99972 11.8333Z" fill="#F4F4F5"/>
</g>
</svg>
