<svg width="142" height="40" viewBox="0 0 142 40" fill="none" xmlns="http://www.w3.org/2000/svg">
<g clip-path="url(#clip0_10073_1756)">
<g style="mix-blend-mode:difference">
<g style="mix-blend-mode:hard-light">
<path d="M0.50927 20.0001C0.50927 10.1817 8.47474 2.22228 18.3007 2.22228C28.1266 2.22228 36.092 10.1817 36.092 20.0001C36.092 29.8185 28.1266 37.7778 18.3007 37.7778C14.8013 37.7778 11.1777 36.4732 8.42605 34.7297C5.33954 36.8684 1.80244 37.6113 9.15527e-05 37.7013C2.32071 32.7544 0.50927 24.4668 0.50927 20.0001Z" fill="url(#paint0_linear_10073_1756)"/>
</g>
<g style="mix-blend-mode:hard-light">
<path d="M22.1049 26.717C22.1049 20.826 26.8842 16.0504 32.7798 16.0504C38.6753 16.0504 43.4546 20.826 43.4546 26.717C43.4546 32.6081 38.6753 37.3837 32.7798 37.3837C30.6801 37.3837 28.5033 36.6222 26.8523 35.5761C24.8311 36.731 22.8822 37.2002 21.7994 37.4529C23.1918 34.4848 22.1049 29.3971 22.1049 26.717Z" fill="url(#paint1_radial_10073_1756)"/>
</g>
</g>
<path d="M64.6012 29.2667C60.0945 29.2667 57.6145 27.5067 57.6145 24.4133V24.3333H61.6145V24.5733C61.6145 25.7733 62.3612 26.0933 64.6278 26.0933C66.7612 26.0933 67.2678 25.7467 67.2678 24.9467C67.2678 24.2 66.8678 23.9867 65.2945 23.7733L61.5345 23.32C58.8678 23.0267 57.3745 21.8267 57.3745 19.5867C57.3745 17.24 59.3745 15.3733 63.9612 15.3733C68.3345 15.3733 70.8145 17.0267 70.8145 20.28V20.36H66.8145V20.2C66.8145 19.1067 66.2812 18.5467 63.8278 18.5467C61.8278 18.5467 61.3212 18.8933 61.3212 19.7467C61.3212 20.44 61.6945 20.7333 63.4545 20.9467L66.3078 21.2933C69.8812 21.6933 71.2145 22.8933 71.2145 25.1067C71.2145 27.6133 68.7345 29.2667 64.6012 29.2667ZM80.4551 29.2667C76.0018 29.2667 72.9618 27.08 72.9618 22.3333C72.9618 18.0667 75.9751 15.3733 80.3751 15.3733C84.7485 15.3733 87.6551 17.6667 87.6551 21.8533C87.6551 22.3333 87.6018 22.68 87.5485 23.1333H76.6685C76.7751 25.1867 77.7351 26.0667 80.3218 26.0667C82.6951 26.0667 83.5218 25.4533 83.5218 24.3067V24.04H87.5218V24.3333C87.5218 27.24 84.6951 29.2667 80.4551 29.2667ZM80.2951 18.4933C77.9218 18.4933 76.9085 19.2933 76.7218 21.0267H83.8151C83.7085 19.2667 82.6418 18.4933 80.2951 18.4933ZM103.511 29H89.3247V25.5867L95.058 21.0267L97.858 19.2667V19L95.058 19.16H89.7247V15.64H103.111V19.08L96.9247 23.8533L94.3914 25.4267V25.6933L96.9247 25.5067H103.511V29ZM115.794 29.2667C112.034 29.2667 110.248 26.9467 110.248 23.96V15.64H114.248V22.6267C114.248 24.7867 115.154 25.6933 117.688 25.6933C120.301 25.6933 121.234 24.68 121.234 22.4133V15.64H125.234V29H121.501V24.92H121.288C120.941 27.16 119.314 29.2667 115.794 29.2667ZM134.559 29.2667C130.053 29.2667 127.573 27.5067 127.573 24.4133V24.3333H131.573V24.5733C131.573 25.7733 132.319 26.0933 134.586 26.0933C136.719 26.0933 137.226 25.7467 137.226 24.9467C137.226 24.2 136.826 23.9867 135.253 23.7733L131.493 23.32C128.826 23.0267 127.333 21.8267 127.333 19.5867C127.333 17.24 129.333 15.3733 133.919 15.3733C138.293 15.3733 140.773 17.0267 140.773 20.28V20.36H136.773V20.2C136.773 19.1067 136.239 18.5467 133.786 18.5467C131.786 18.5467 131.279 18.8933 131.279 19.7467C131.279 20.44 131.653 20.7333 133.413 20.9467L136.266 21.2933C139.839 21.6933 141.173 22.8933 141.173 25.1067C141.173 27.6133 138.693 29.2667 134.559 29.2667Z" fill="#E4E4E7"/>
</g>
<defs>
<linearGradient id="paint0_linear_10073_1756" x1="-9.31156" y1="46.4528" x2="27.7222" y2="5.24141" gradientUnits="userSpaceOnUse">
<stop offset="0.0001" stop-color="#E4C000"/>
<stop offset="0.47" stop-color="#CD0000"/>
<stop offset="1" stop-color="#AA3B70"/>
</linearGradient>
<radialGradient id="paint1_radial_10073_1756" cx="0" cy="0" r="1" gradientUnits="userSpaceOnUse" gradientTransform="translate(43.2377 16.0504) rotate(135.84) scale(29.8837 369.663)">
<stop stop-color="#2068DE"/>
<stop offset="1" stop-color="#1A74E9"/>
</radialGradient>
<clipPath id="clip0_10073_1756">
<rect width="141.788" height="40" fill="white"/>
</clipPath>
</defs>
</svg>
