<svg width="24" height="24" viewBox="0 0 24 24" fill="none" xmlns="http://www.w3.org/2000/svg">
<mask id="mask0_9207_20601" style="mask-type:alpha" maskUnits="userSpaceOnUse" x="0" y="0" width="24" height="24">
<rect width="24" height="24" fill="#D9D9D9"/>
</mask>
<g mask="url(#mask0_9207_20601)">
<path d="M12 11.6922C11.0375 11.6922 10.2136 11.3495 9.52816 10.6641C8.84274 9.97873 8.50003 9.15478 8.50003 8.1923C8.50003 7.2298 8.84274 6.40585 9.52816 5.72045C10.2136 5.03503 11.0375 4.69232 12 4.69232C12.9625 4.69232 13.7864 5.03503 14.4719 5.72045C15.1573 6.40585 15.5 7.2298 15.5 8.1923C15.5 9.15478 15.1573 9.97873 14.4719 10.6641C13.7864 11.3495 12.9625 11.6922 12 11.6922ZM4.50003 19.3076V17.0846C4.50003 16.5948 4.63305 16.1413 4.89908 15.724C5.1651 15.3067 5.52054 14.9859 5.96541 14.7615C6.95387 14.2769 7.95099 13.9134 8.95676 13.6711C9.96252 13.4288 10.9769 13.3077 12 13.3077C13.0231 13.3077 14.0375 13.4288 15.0433 13.6711C16.049 13.9134 17.0461 14.2769 18.0346 14.7615C18.4795 14.9859 18.8349 15.3067 19.1009 15.724C19.367 16.1413 19.5 16.5948 19.5 17.0846V19.3076H4.50003ZM6.00001 17.8076H18V17.0846C18 16.882 17.9413 16.6945 17.824 16.5221C17.7067 16.3496 17.5474 16.2089 17.3462 16.0999C16.4846 15.6756 15.6061 15.3541 14.7107 15.1355C13.8153 14.9169 12.9117 14.8076 12 14.8076C11.0883 14.8076 10.1847 14.9169 9.28931 15.1355C8.39387 15.3541 7.51539 15.6756 6.65386 16.0999C6.45257 16.2089 6.29328 16.3496 6.17598 16.5221C6.05866 16.6945 6.00001 16.882 6.00001 17.0846V17.8076ZM12 10.1923C12.55 10.1923 13.0208 9.99646 13.4125 9.6048C13.8042 9.21313 14 8.7423 14 8.1923C14 7.6423 13.8042 7.17146 13.4125 6.7798C13.0208 6.38813 12.55 6.1923 12 6.1923C11.45 6.1923 10.9792 6.38813 10.5875 6.7798C10.1958 7.17146 10 7.6423 10 8.1923C10 8.7423 10.1958 9.21313 10.5875 9.6048C10.9792 9.99646 11.45 10.1923 12 10.1923Z" fill="#F4F4F5"/>
</g>
</svg>
