<svg width="24" height="24" viewBox="0 0 24 24" fill="none" xmlns="http://www.w3.org/2000/svg">
<mask id="mask0_9207_20585" style="mask-type:alpha" maskUnits="userSpaceOnUse" x="0" y="0" width="24" height="24">
<rect width="24" height="24" fill="#D9D9D9"/>
</mask>
<g mask="url(#mask0_9207_20585)">
<path d="M12 16.7115C12.2289 16.7115 12.4207 16.6341 12.5755 16.4793C12.7303 16.3245 12.8077 16.1327 12.8077 15.9038C12.8077 15.675 12.7303 15.4832 12.5755 15.3284C12.4207 15.1735 12.2289 15.0961 12 15.0961C11.7712 15.0961 11.5793 15.1735 11.4245 15.3284C11.2697 15.4832 11.1923 15.675 11.1923 15.9038C11.1923 16.1327 11.2697 16.3245 11.4245 16.4793C11.5793 16.6341 11.7712 16.7115 12 16.7115ZM11.25 13.2308H12.75V7.1923H11.25V13.2308ZM8.46156 20.5L3.50003 15.543V8.46153L8.45703 3.5H15.5385L20.5 8.457V15.5384L15.543 20.5H8.46156ZM9.10001 19H14.9L19 14.9V9.09998L14.9 4.99998H9.10001L5.00001 9.09998V14.9L9.10001 19Z" fill="#F4F4F5"/>
</g>
</svg>
