<svg width="348" height="24" viewBox="0 0 348 24" fill="none" xmlns="http://www.w3.org/2000/svg">
<mask id="mask0_9207_20674" style="mask-type:alpha" maskUnits="userSpaceOnUse" x="0" y="0" width="24" height="24">
<rect width="24" height="24" fill="#D9D9D9"/>
</mask>
<g mask="url(#mask0_9207_20674)">
<path d="M4.5 14.5C3.80133 14.5 3.21 14.258 2.726 13.774C2.242 13.29 2 12.6987 2 12C2 11.3013 2.242 10.71 2.726 10.226C3.21 9.742 3.80133 9.5 4.5 9.5V7.30775C4.5 6.81058 4.677 6.385 5.031 6.031C5.385 5.677 5.81058 5.5 6.30775 5.5H9.5C9.5 4.80133 9.742 4.21 10.226 3.726C10.71 3.242 11.3013 3 12 3C12.6987 3 13.29 3.242 13.774 3.726C14.258 4.21 14.5 4.80133 14.5 5.5H17.6923C18.1894 5.5 18.615 5.677 18.969 6.031C19.323 6.385 19.5 6.81058 19.5 7.30775V9.5C20.1987 9.5 20.79 9.742 21.274 10.226C21.758 10.71 22 11.3013 22 12C22 12.6987 21.758 13.29 21.274 13.774C20.79 14.258 20.1987 14.5 19.5 14.5V18.6923C19.5 19.1894 19.323 19.615 18.969 19.969C18.615 20.323 18.1894 20.5 17.6923 20.5H6.30775C5.81058 20.5 5.385 20.323 5.031 19.969C4.677 19.615 4.5 19.1894 4.5 18.6923V14.5ZM8.99875 12.75C9.34575 12.75 9.641 12.6286 9.8845 12.3857C10.1282 12.1429 10.25 11.8481 10.25 11.5013C10.25 11.1543 10.1286 10.859 9.88575 10.6155C9.64292 10.3718 9.34808 10.25 9.00125 10.25C8.65425 10.25 8.359 10.3714 8.1155 10.6143C7.87183 10.8571 7.75 11.1519 7.75 11.4988C7.75 11.8458 7.87142 12.141 8.11425 12.3845C8.35708 12.6282 8.65192 12.75 8.99875 12.75ZM14.9988 12.75C15.3458 12.75 15.641 12.6286 15.8845 12.3857C16.1282 12.1429 16.25 11.8481 16.25 11.5013C16.25 11.1543 16.1286 10.859 15.8857 10.6155C15.6429 10.3718 15.3481 10.25 15.0013 10.25C14.6543 10.25 14.359 10.3714 14.1155 10.6143C13.8718 10.8571 13.75 11.1519 13.75 11.4988C13.75 11.8458 13.8714 12.141 14.1143 12.3845C14.3571 12.6282 14.6519 12.75 14.9988 12.75ZM8.25 16.75H15.75V15.25H8.25V16.75ZM6.30775 19H17.6923C17.7821 19 17.8558 18.9712 17.9135 18.9135C17.9712 18.8558 18 18.7821 18 18.6923V7.30775C18 7.21792 17.9712 7.14417 17.9135 7.0865C17.8558 7.02883 17.7821 7 17.6923 7H6.30775C6.21792 7 6.14417 7.02883 6.0865 7.0865C6.02883 7.14417 6 7.21792 6 7.30775V18.6923C6 18.7821 6.02883 18.8558 6.0865 18.9135C6.14417 18.9712 6.21792 19 6.30775 19Z" fill="#F4F4F5"/>
</g>
<mask id="mask1_9207_20674" style="mask-type:alpha" maskUnits="userSpaceOnUse" x="36" y="0" width="24" height="24">
<rect x="36" width="24" height="24" fill="#D9D9D9"/>
</mask>
<g mask="url(#mask1_9207_20674)">
<path d="M42.1423 17.6538L44.4904 13.5673C44.4327 13.5993 44.3654 13.6218 44.2885 13.6346C44.2116 13.6474 44.1346 13.6538 44.0577 13.6538C43.041 13.6538 42.1779 13.2961 41.4683 12.5805C40.7587 11.865 40.4039 11.0048 40.4039 10C40.4039 8.98335 40.7587 8.12022 41.4683 7.41062C42.1779 6.701 43.041 6.34619 44.0577 6.34619C45.0625 6.34619 45.9227 6.701 46.6382 7.41062C47.3537 8.12022 47.7115 8.98223 47.7115 9.99667C47.7115 10.3502 47.6689 10.6782 47.5836 10.9808C47.4984 11.2833 47.3737 11.5718 47.2096 11.8462L43.8654 17.6538H42.1423ZM51.0269 17.6538L53.375 13.5673C53.3173 13.5993 53.25 13.6218 53.1731 13.6346C53.0962 13.6474 53.0192 13.6538 52.9423 13.6538C51.9256 13.6538 51.0625 13.2961 50.3529 12.5805C49.6433 11.865 49.2885 11.0048 49.2885 10C49.2885 8.97695 49.6433 8.11221 50.3529 7.40579C51.0625 6.69939 51.9256 6.34619 52.9423 6.34619C53.9471 6.34619 54.8073 6.701 55.5228 7.41062C56.2384 8.12022 56.5961 8.98223 56.5961 9.99667C56.5961 10.3502 56.5535 10.6782 56.4682 10.9808C56.383 11.2833 56.2583 11.5718 56.0942 11.8462L52.75 17.6538H51.0269ZM44.0577 11.8462C44.5705 11.8462 45.0064 11.6667 45.3654 11.3077C45.7244 10.9488 45.9039 10.5129 45.9039 10C45.9039 9.48718 45.7244 9.05128 45.3654 8.69232C45.0064 8.33333 44.5705 8.15384 44.0577 8.15384C43.5449 8.15384 43.109 8.33333 42.75 8.69232C42.391 9.05128 42.2115 9.48718 42.2115 10C42.2115 10.5129 42.391 10.9488 42.75 11.3077C43.109 11.6667 43.5449 11.8462 44.0577 11.8462ZM52.9423 11.8462C53.4551 11.8462 53.891 11.6667 54.25 11.3077C54.609 10.9488 54.7885 10.5129 54.7885 10C54.7885 9.48718 54.609 9.05128 54.25 8.69232C53.891 8.33333 53.4551 8.15384 52.9423 8.15384C52.4295 8.15384 51.9936 8.33333 51.6346 8.69232C51.2756 9.05128 51.0961 9.48718 51.0961 10C51.0961 10.5129 51.2756 10.9488 51.6346 11.3077C51.9936 11.6667 52.4295 11.8462 52.9423 11.8462Z" fill="#F4F4F5"/>
</g>
<mask id="mask2_9207_20674" style="mask-type:alpha" maskUnits="userSpaceOnUse" x="72" y="0" width="24" height="24">
<rect x="72" width="24" height="24" fill="#D9D9D9"/>
</mask>
<g mask="url(#mask2_9207_20674)">
<path d="M84 17.1152C85.1475 17.1152 86.1202 16.7163 86.9183 15.9183C87.7163 15.1202 88.1152 14.1475 88.1152 13C88.1152 11.8525 87.7163 10.8798 86.9183 10.0818C86.1202 9.28375 85.1475 8.88475 84 8.88475C82.8525 8.88475 81.8797 9.28375 81.0817 10.0818C80.2838 10.8798 79.8848 11.8525 79.8848 13C79.8848 14.1475 80.2838 15.1202 81.0817 15.9183C81.8797 16.7163 82.8525 17.1152 84 17.1152ZM84 15.6155C83.2615 15.6155 82.641 15.3642 82.1385 14.8615C81.6358 14.359 81.3845 13.7385 81.3845 13C81.3845 12.2615 81.6358 11.641 82.1385 11.1385C82.641 10.6358 83.2615 10.3845 84 10.3845C84.7385 10.3845 85.359 10.6358 85.8615 11.1385C86.3642 11.641 86.6155 12.2615 86.6155 13C86.6155 13.7385 86.3642 14.359 85.8615 14.8615C85.359 15.3642 84.7385 15.6155 84 15.6155ZM76.3077 20.5C75.8026 20.5 75.375 20.325 75.025 19.975C74.675 19.625 74.5 19.1974 74.5 18.6923V7.30775C74.5 6.80258 74.675 6.375 75.025 6.025C75.375 5.675 75.8026 5.5 76.3077 5.5H79.3615L80.6693 4.08275C80.8334 3.90192 81.0318 3.75958 81.2645 3.65575C81.4972 3.55192 81.7423 3.5 82 3.5H86C86.2577 3.5 86.5028 3.55192 86.7355 3.65575C86.9682 3.75958 87.1666 3.90192 87.3307 4.08275L88.6385 5.5H91.6923C92.1974 5.5 92.625 5.675 92.975 6.025C93.325 6.375 93.5 6.80258 93.5 7.30775V18.6923C93.5 19.1974 93.325 19.625 92.975 19.975C92.625 20.325 92.1974 20.5 91.6923 20.5H76.3077ZM76.3077 19H91.6923C91.7821 19 91.8558 18.9712 91.9135 18.9135C91.9712 18.8558 92 18.7821 92 18.6923V7.30775C92 7.21792 91.9712 7.14417 91.9135 7.0865C91.8558 7.02883 91.7821 7 91.6923 7H87.9693L86.1345 5H81.8655L80.0308 7H76.3077C76.2179 7 76.1442 7.02883 76.0865 7.0865C76.0288 7.14417 76 7.21792 76 7.30775V18.6923C76 18.7821 76.0288 18.8558 76.0865 18.9135C76.1442 18.9712 76.2179 19 76.3077 19Z" fill="#F4F4F5"/>
</g>
<mask id="mask3_9207_20674" style="mask-type:alpha" maskUnits="userSpaceOnUse" x="108" y="0" width="24" height="24">
<rect x="108" width="24" height="24" fill="#D9D9D9"/>
</mask>
<g mask="url(#mask3_9207_20674)">
<path d="M113.308 20.5C112.803 20.5 112.375 20.325 112.025 19.975C111.675 19.625 111.5 19.1974 111.5 18.6923V5.30775C111.5 4.80258 111.675 4.375 112.025 4.025C112.375 3.675 112.803 3.5 113.308 3.5H126.692C127.197 3.5 127.625 3.675 127.975 4.025C128.325 4.375 128.5 4.80258 128.5 5.30775V18.6923C128.5 19.1974 128.325 19.625 127.975 19.975C127.625 20.325 127.197 20.5 126.692 20.5H113.308ZM113.308 19H126.692C126.769 19 126.84 18.9679 126.904 18.9038C126.968 18.8398 127 18.7692 127 18.6923V5.30775C127 5.23075 126.968 5.16025 126.904 5.09625C126.84 5.03208 126.769 5 126.692 5H113.308C113.231 5 113.16 5.03208 113.096 5.09625C113.032 5.16025 113 5.23075 113 5.30775V18.6923C113 18.7692 113.032 18.8398 113.096 18.9038C113.16 18.9679 113.231 19 113.308 19ZM115.654 16.75H124.423C124.604 16.75 124.738 16.6679 124.825 16.5038C124.912 16.3398 124.899 16.1808 124.785 16.027L122.4 12.8328C122.306 12.7123 122.186 12.652 122.038 12.652C121.891 12.652 121.771 12.7123 121.677 12.8328L119.231 16.0192L117.592 13.9192C117.499 13.8051 117.38 13.748 117.236 13.748C117.091 13.748 116.972 13.8083 116.879 13.929L115.302 16.027C115.181 16.1808 115.165 16.3398 115.252 16.5038C115.339 16.6679 115.473 16.75 115.654 16.75Z" fill="#F4F4F5"/>
</g>
<mask id="mask4_9207_20674" style="mask-type:alpha" maskUnits="userSpaceOnUse" x="144" y="0" width="24" height="24">
<rect x="144" width="24" height="24" fill="#D9D9D9"/>
</mask>
<g mask="url(#mask4_9207_20674)">
<path d="M149.308 20.5C148.803 20.5 148.375 20.325 148.025 19.975C147.675 19.625 147.5 19.1974 147.5 18.6923V5.30775C147.5 4.80258 147.675 4.375 148.025 4.025C148.375 3.675 148.803 3.5 149.308 3.5H162.692C163.197 3.5 163.625 3.675 163.975 4.025C164.325 4.375 164.5 4.80258 164.5 5.30775V18.6923C164.5 19.1974 164.325 19.625 163.975 19.975C163.625 20.325 163.197 20.5 162.692 20.5H149.308ZM149.308 19H162.692C162.769 19 162.84 18.9679 162.904 18.9038C162.968 18.8398 163 18.7692 163 18.6923V5.30775C163 5.23075 162.968 5.16025 162.904 5.09625C162.84 5.03208 162.769 5 162.692 5H149.308C149.231 5 149.16 5.03208 149.096 5.09625C149.032 5.16025 149 5.23075 149 5.30775V18.6923C149 18.7692 149.032 18.8398 149.096 18.9038C149.16 18.9679 149.231 19 149.308 19ZM152.5 13.9423H153.5C153.764 13.9423 153.987 13.8512 154.169 13.6692C154.351 13.4872 154.442 13.2642 154.442 13V12.5C154.442 12.3795 154.399 12.2757 154.312 12.1885C154.224 12.1013 154.121 12.0577 154 12.0577C153.879 12.0577 153.776 12.1013 153.689 12.1885C153.601 12.2757 153.558 12.3795 153.558 12.5V13C153.558 13.0128 153.551 13.0257 153.539 13.0385C153.526 13.0513 153.513 13.0577 153.5 13.0577H152.5C152.487 13.0577 152.474 13.0513 152.461 13.0385C152.449 13.0257 152.442 13.0128 152.442 13V11C152.442 10.9872 152.447 10.9743 152.457 10.9615C152.466 10.9487 152.478 10.9423 152.49 10.9423H153.99C154.111 10.9423 154.215 10.8987 154.302 10.8115C154.389 10.7243 154.433 10.6205 154.433 10.5C154.433 10.3795 154.389 10.2757 154.302 10.1885C154.215 10.1013 154.111 10.0578 153.99 10.0578H152.5C152.236 10.0578 152.013 10.1487 151.831 10.3307C151.649 10.5127 151.558 10.7358 151.558 11V13C151.558 13.2642 151.649 13.4872 151.831 13.6692C152.013 13.8512 152.236 13.9423 152.5 13.9423ZM156 13.9423C156.12 13.9423 156.224 13.8987 156.311 13.8115C156.399 13.7243 156.442 13.6205 156.442 13.5V10.5C156.442 10.3795 156.399 10.2757 156.311 10.1885C156.224 10.1013 156.12 10.0578 156 10.0578C155.88 10.0578 155.776 10.1013 155.689 10.1885C155.601 10.2757 155.558 10.3795 155.558 10.5V13.5C155.558 13.6205 155.601 13.7243 155.689 13.8115C155.776 13.8987 155.88 13.9423 156 13.9423ZM158 13.9423C158.12 13.9423 158.224 13.8987 158.312 13.8115C158.399 13.7243 158.442 13.6205 158.442 13.5V12.4423H159.5C159.62 12.4423 159.724 12.3987 159.812 12.3115C159.899 12.2243 159.942 12.1205 159.942 12C159.942 11.8795 159.899 11.7757 159.812 11.6885C159.724 11.6013 159.62 11.5577 159.5 11.5577H158.442V10.9423H160C160.12 10.9423 160.224 10.8987 160.312 10.8115C160.399 10.7243 160.442 10.6205 160.442 10.5C160.442 10.3795 160.399 10.2757 160.312 10.1885C160.224 10.1013 160.12 10.0578 160 10.0578H158C157.88 10.0578 157.776 10.1013 157.688 10.1885C157.601 10.2757 157.558 10.3795 157.558 10.5V13.5C157.558 13.6205 157.601 13.7243 157.688 13.8115C157.776 13.8987 157.88 13.9423 158 13.9423Z" fill="#F4F4F5"/>
</g>
<mask id="mask5_9207_20674" style="mask-type:alpha" maskUnits="userSpaceOnUse" x="180" y="0" width="24" height="24">
<rect x="180" width="24" height="24" fill="#D9D9D9"/>
</mask>
<g mask="url(#mask5_9207_20674)">
<path d="M192 13.5C191.301 13.5 190.71 13.258 190.226 12.774C189.742 12.29 189.5 11.6987 189.5 11V5C189.5 4.30133 189.742 3.71 190.226 3.226C190.71 2.742 191.301 2.5 192 2.5C192.699 2.5 193.29 2.742 193.774 3.226C194.258 3.71 194.5 4.30133 194.5 5V11C194.5 11.6987 194.258 12.29 193.774 12.774C193.29 13.258 192.699 13.5 192 13.5ZM191.25 20V17.4538C189.762 17.2819 188.486 16.6704 187.423 15.6193C186.36 14.5679 185.738 13.2865 185.556 11.775C185.529 11.5622 185.585 11.3798 185.723 11.228C185.862 11.076 186.037 11 186.25 11C186.463 11 186.641 11.0734 186.785 11.2203C186.928 11.3669 187.024 11.5467 187.071 11.7595C187.253 12.984 187.813 13.9968 188.751 14.798C189.689 15.5993 190.772 16 192 16C193.245 16 194.332 15.5952 195.262 14.7855C196.191 13.976 196.747 12.9673 196.929 11.7595C196.976 11.5467 197.072 11.3669 197.216 11.2203C197.359 11.0734 197.537 11 197.75 11C197.963 11 198.139 11.076 198.277 11.228C198.415 11.3798 198.471 11.5622 198.444 11.775C198.262 13.2532 197.644 14.5247 196.59 15.5895C195.535 16.6542 194.255 17.2756 192.75 17.4538V20C192.75 20.2128 192.678 20.391 192.535 20.5345C192.391 20.6782 192.213 20.75 192 20.75C191.787 20.75 191.609 20.6782 191.466 20.5345C191.322 20.391 191.25 20.2128 191.25 20ZM192 12C192.283 12 192.521 11.9042 192.713 11.7125C192.904 11.5208 193 11.2833 193 11V5C193 4.71667 192.904 4.47917 192.713 4.2875C192.521 4.09583 192.283 4 192 4C191.717 4 191.479 4.09583 191.288 4.2875C191.096 4.47917 191 4.71667 191 5V11C191 11.2833 191.096 11.5208 191.288 11.7125C191.479 11.9042 191.717 12 192 12Z" fill="#F4F4F5"/>
</g>
<mask id="mask6_9207_20674" style="mask-type:alpha" maskUnits="userSpaceOnUse" x="216" y="0" width="24" height="24">
<rect x="216" width="24" height="24" fill="#D9D9D9"/>
</mask>
<g mask="url(#mask6_9207_20674)">
<path d="M225.048 15.5385L224.175 19.0057C224.138 19.1711 224.058 19.3012 223.937 19.396C223.815 19.491 223.666 19.5385 223.491 19.5385C223.257 19.5385 223.066 19.4455 222.917 19.2595C222.769 19.0737 222.726 18.8692 222.791 18.6462L223.567 15.5385H220.717C220.467 15.5385 220.266 15.443 220.115 15.252C219.963 15.0608 219.919 14.8454 219.983 14.6057C220.026 14.4301 220.116 14.2917 220.251 14.1905C220.386 14.0892 220.542 14.0385 220.717 14.0385H223.942L224.962 9.96149H222.112C221.862 9.96149 221.661 9.86599 221.509 9.67499C221.357 9.48399 221.313 9.26857 221.377 9.02874C221.421 8.85324 221.51 8.71482 221.645 8.61349C221.78 8.51215 221.936 8.46149 222.112 8.46149H225.337L226.21 4.99424C226.247 4.8289 226.326 4.69882 226.448 4.60399C226.57 4.50899 226.719 4.46149 226.894 4.46149C227.128 4.46149 227.319 4.55449 227.467 4.74049C227.616 4.92632 227.658 5.13074 227.594 5.35374L226.817 8.46149H230.952L231.825 4.99424C231.862 4.8289 231.942 4.69882 232.064 4.60399C232.185 4.50899 232.334 4.46149 232.51 4.46149C232.743 4.46149 232.934 4.55449 233.083 4.74049C233.231 4.92632 233.274 5.13074 233.21 5.35374L232.433 8.46149H235.283C235.533 8.46149 235.734 8.55699 235.886 8.74799C236.038 8.93915 236.081 9.15457 236.017 9.39424C235.974 9.5699 235.884 9.70832 235.749 9.80949C235.614 9.91082 235.458 9.96149 235.283 9.96149H232.058L231.039 14.0385H233.889C234.139 14.0385 234.339 14.134 234.491 14.325C234.643 14.516 234.687 14.7314 234.623 14.9712C234.58 15.1467 234.49 15.2852 234.355 15.3865C234.22 15.4878 234.064 15.5385 233.889 15.5385H230.664L229.79 19.0057C229.753 19.1711 229.674 19.3012 229.552 19.396C229.43 19.491 229.281 19.5385 229.106 19.5385C228.872 19.5385 228.681 19.4455 228.533 19.2595C228.384 19.0737 228.342 18.8692 228.406 18.6462L229.183 15.5385H225.048ZM225.423 14.0385H229.558L230.577 9.96149H226.442L225.423 14.0385Z" fill="#F4F4F5"/>
</g>
<mask id="mask7_9207_20674" style="mask-type:alpha" maskUnits="userSpaceOnUse" x="252" y="0" width="24" height="24">
<rect x="252" width="24" height="24" fill="#D9D9D9"/>
</mask>
<g mask="url(#mask7_9207_20674)">
<path d="M258.166 14.5537L257.308 16.9807C257.254 17.1256 257.17 17.2368 257.055 17.3145C256.94 17.392 256.81 17.4307 256.666 17.4307C256.419 17.4307 256.228 17.3304 256.091 17.1297C255.955 16.9291 255.932 16.716 256.023 16.4905L259.435 7.28074C259.489 7.13591 259.577 7.02216 259.7 6.93949C259.823 6.85682 259.957 6.81549 260.102 6.81549H260.639C260.783 6.81549 260.92 6.85682 261.048 6.93949C261.176 7.02216 261.267 7.13591 261.321 7.28074L264.762 16.4962C264.853 16.7217 264.826 16.9339 264.681 17.1327C264.536 17.3314 264.346 17.4307 264.11 17.4307C263.965 17.4307 263.832 17.3878 263.711 17.302C263.589 17.216 263.502 17.1006 263.448 16.9557L262.606 14.5537H258.166ZM258.625 13.3H262.141L260.416 8.41349H260.335L258.625 13.3ZM268.385 17.6712C267.573 17.6712 266.925 17.4484 266.441 17.0027C265.957 16.5572 265.715 15.9852 265.715 15.2865C265.715 14.566 265.998 13.9811 266.564 13.5317C267.129 13.0824 267.855 12.8577 268.742 12.8577C269.113 12.8577 269.481 12.8927 269.848 12.9625C270.215 13.0323 270.535 13.1288 270.808 13.252V12.8077C270.808 12.2411 270.64 11.7981 270.305 11.4787C269.97 11.1596 269.503 11 268.904 11C268.641 11 268.382 11.0407 268.128 11.122C267.873 11.2035 267.64 11.3192 267.427 11.4692C267.262 11.5974 267.104 11.6397 266.954 11.596C266.804 11.5525 266.683 11.4737 266.592 11.3595C266.501 11.2455 266.459 11.1161 266.466 10.9712C266.472 10.8262 266.551 10.6999 266.702 10.5922C267.016 10.3576 267.365 10.1842 267.75 10.072C268.135 9.95982 268.524 9.90374 268.919 9.90374C269.973 9.90374 270.758 10.1617 271.273 10.6777C271.788 11.1939 272.046 11.968 272.046 13V16.8192C272.046 16.9911 271.985 17.1359 271.862 17.2537C271.739 17.3717 271.591 17.4307 271.419 17.4307C271.247 17.4307 271.103 17.3692 270.985 17.2462C270.867 17.1231 270.808 16.9756 270.808 16.8037V16.4577H270.708C270.449 16.8602 270.124 17.1631 269.734 17.3662C269.343 17.5696 268.894 17.6712 268.385 17.6712ZM268.569 16.5905C269.204 16.5905 269.738 16.368 270.172 15.923C270.606 15.4782 270.823 14.9378 270.823 14.302C270.59 14.1687 270.303 14.0645 269.962 13.9895C269.621 13.9145 269.285 13.877 268.956 13.877C268.358 13.877 267.887 14.0017 267.542 14.251C267.197 14.5003 267.025 14.8455 267.025 15.2865C267.025 15.6583 267.17 15.9686 267.459 16.2172C267.748 16.4661 268.118 16.5905 268.569 16.5905Z" fill="#F4F4F5"/>
</g>
<mask id="mask8_9207_20674" style="mask-type:alpha" maskUnits="userSpaceOnUse" x="288" y="0" width="24" height="24">
<rect x="288" width="24" height="24" fill="#D9D9D9"/>
</mask>
<g mask="url(#mask8_9207_20674)">
<path d="M305.962 12.75V11.25H309.577V12.75H305.962ZM307.104 19.4808L304.212 17.3115L305.123 16.1155L308.015 18.2845L307.104 19.4808ZM305.085 7.84627L304.173 6.65002L307.065 4.48077L307.977 5.67702L305.085 7.84627ZM293.25 18.4808V14.577H290.423V9.42302H296.096L300.577 6.75002V17.25L296.096 14.577H294.75V18.4808H293.25ZM299.077 14.5848V9.41527L296.512 10.923H291.923V13.077H296.512L299.077 14.5848ZM301.962 15.1193V8.88077C302.354 9.23594 302.67 9.68336 302.91 10.223C303.149 10.7629 303.269 11.3552 303.269 12C303.269 12.6449 303.149 13.2372 302.91 13.777C302.67 14.3167 302.354 14.7641 301.962 15.1193Z" fill="#F4F4F5"/>
</g>
<mask id="mask9_9207_20674" style="mask-type:alpha" maskUnits="userSpaceOnUse" x="324" y="0" width="24" height="24">
<rect x="324" width="24" height="24" fill="#D9D9D9"/>
</mask>
<g mask="url(#mask9_9207_20674)">
<path d="M336 21.5C334.698 21.5 333.468 21.2503 332.312 20.751C331.157 20.2517 330.149 19.5718 329.288 18.7115C328.428 17.8513 327.748 16.8433 327.249 15.6875C326.75 14.5317 326.5 13.3025 326.5 12C326.5 10.6872 326.75 9.45542 327.249 8.30475C327.748 7.15408 328.428 6.14867 329.288 5.2885C330.149 4.42817 331.157 3.74833 332.312 3.249C333.468 2.74967 334.698 2.5 336 2.5C337.313 2.5 338.545 2.74967 339.695 3.249C340.846 3.74833 341.851 4.42817 342.712 5.2885C343.572 6.14867 344.252 7.15408 344.751 8.30475C345.25 9.45542 345.5 10.6872 345.5 12C345.5 13.3025 345.25 14.5317 344.751 15.6875C344.252 16.8433 343.572 17.8513 342.712 18.7115C341.851 19.5718 340.846 20.2517 339.695 20.751C338.545 21.2503 337.313 21.5 336 21.5ZM336 19.9788C336.51 19.3019 336.94 18.6192 337.288 17.9307C337.637 17.2422 337.921 16.4897 338.141 15.673H333.86C334.092 16.5153 334.379 17.2808 334.721 17.9693C335.063 18.6578 335.49 19.3276 336 19.9788ZM334.064 19.7038C333.68 19.1538 333.336 18.5285 333.031 17.828C332.726 17.1273 332.488 16.409 332.319 15.673H328.927C329.455 16.7115 330.163 17.584 331.052 18.2905C331.94 18.9968 332.944 19.4679 334.064 19.7038ZM337.937 19.7038C339.056 19.4679 340.059 18.9968 340.948 18.2905C341.837 17.584 342.545 16.7115 343.073 15.673H339.681C339.479 16.4153 339.226 17.1368 338.921 17.8375C338.616 18.5382 338.288 19.1602 337.937 19.7038ZM328.298 14.173H332.016C331.953 13.8013 331.907 13.4369 331.879 13.0798C331.851 12.7227 331.836 12.3628 331.836 12C331.836 11.6372 331.851 11.2773 331.879 10.9202C331.907 10.5631 331.953 10.1987 332.016 9.827H328.298C328.202 10.1667 328.128 10.5198 328.077 10.8865C328.026 11.2532 328 11.6243 328 12C328 12.3757 328.026 12.7468 328.077 13.1135C328.128 13.4802 328.202 13.8333 328.298 14.173ZM333.515 14.173H338.485C338.547 13.8013 338.593 13.4402 338.621 13.0895C338.649 12.7388 338.663 12.3757 338.663 12C338.663 11.6243 338.649 11.2612 338.621 10.9105C338.593 10.5598 338.547 10.1987 338.485 9.827H333.515C333.453 10.1987 333.407 10.5598 333.379 10.9105C333.351 11.2612 333.336 11.6243 333.336 12C333.336 12.3757 333.351 12.7388 333.379 13.0895C333.407 13.4402 333.453 13.8013 333.515 14.173ZM339.984 14.173H343.702C343.798 13.8333 343.872 13.4802 343.923 13.1135C343.974 12.7468 344 12.3757 344 12C344 11.6243 343.974 11.2532 343.923 10.8865C343.872 10.5198 343.798 10.1667 343.702 9.827H339.984C340.047 10.1987 340.093 10.5631 340.121 10.9202C340.149 11.2773 340.163 11.6372 340.163 12C340.163 12.3628 340.149 12.7227 340.121 13.0798C340.093 13.4369 340.047 13.8013 339.984 14.173ZM339.681 8.327H343.073C342.538 7.27567 341.835 6.40317 340.963 5.7095C340.09 5.016 339.081 4.54167 337.937 4.2865C338.32 4.8685 338.661 5.50508 338.96 6.19625C339.258 6.88725 339.499 7.5975 339.681 8.327ZM333.86 8.327H338.141C337.908 7.491 337.616 6.72075 337.265 6.01625C336.913 5.31175 336.491 4.64675 336 4.02125C335.509 4.64675 335.088 5.31175 334.736 6.01625C334.384 6.72075 334.092 7.491 333.86 8.327ZM328.927 8.327H332.319C332.501 7.5975 332.742 6.88725 333.041 6.19625C333.339 5.50508 333.68 4.8685 334.064 4.2865C332.912 4.54167 331.902 5.01767 331.033 5.7145C330.163 6.41117 329.462 7.282 328.927 8.327Z" fill="#F4F4F5"/>
</g>
</svg>
