<svg width="17" height="20" viewBox="0 0 17 20" fill="none" xmlns="http://www.w3.org/2000/svg">
<path d="M7.99831 19.6923C7.50072 19.6923 7.07533 19.5153 6.72213 19.1613C6.36893 18.8073 6.19233 18.3817 6.19233 17.8846H9.80768C9.80768 18.3833 9.63051 18.8093 9.27618 19.1625C8.92185 19.5157 8.49589 19.6923 7.99831 19.6923ZM0.500031 16.8846V15.3847H2.30773V7.92308C2.30773 6.57821 2.72279 5.38912 3.55291 4.35578C4.38304 3.32245 5.44875 2.66156 6.75003 2.37311V0.500031H9.24998V1.95001C9.01921 2.32181 8.84293 2.72051 8.72113 3.14613C8.59933 3.57173 8.53843 4.00701 8.53843 4.45196C8.53843 5.80966 9.01471 6.96959 9.96728 7.93176C10.9198 8.89394 12.0718 9.38144 13.423 9.39426H13.5577C13.6025 9.39426 13.6474 9.39106 13.6923 9.38466V15.3847H15.5V16.8846H0.500031ZM13.4819 7.20196C12.7183 7.20196 12.0689 6.93471 11.5336 6.40021C10.9984 5.86571 10.7308 5.21666 10.7308 4.45308C10.7308 3.68951 10.998 3.04011 11.5325 2.50486C12.067 1.96961 12.716 1.70198 13.4796 1.70198C14.2432 1.70198 14.8926 1.96923 15.4278 2.50373C15.9631 3.03823 16.2307 3.68727 16.2307 4.45083C16.2307 5.2144 15.9635 5.86381 15.429 6.39906C14.8945 6.93432 14.2454 7.20196 13.4819 7.20196Z" fill="#F4F4F5"/>
</svg>
