<svg width="28" height="26" viewBox="0 0 28 26" fill="none" xmlns="http://www.w3.org/2000/svg">
<path d="M9.74015 24.0105L10.1871 24.7632L10.9923 24.4198L14 23.1371L17.0077 24.4198L17.8129 24.7632L18.2599 24.0105L19.9391 21.1824L23.1169 20.4762L23.9787 20.2847L23.8956 19.4058L23.5861 16.1345L25.7526 13.6585L26.3288 13L25.7526 12.3415L23.5861 9.86553L23.8956 6.59417L23.9787 5.71532L23.1169 5.52381L19.9391 4.81762L18.2599 1.98946L17.8129 1.23675L17.0077 1.58016L14 2.86286L10.9923 1.58016L10.1871 1.23675L9.74015 1.98946L8.06092 4.81762L4.88307 5.52381L4.02131 5.71532L4.10444 6.59417L4.4139 9.86553L2.24742 12.3415L1.67123 13L2.24742 13.6585L4.4139 16.1345L4.10444 19.4058L4.02131 20.2847L4.88307 20.4762L8.06093 21.1824L9.74015 24.0105ZM12.95 15.1358L11.3194 13.5052L12.2513 14.4154L12.9583 15.1059L13.6571 14.4071L17.1875 10.8767L17.1981 10.8877L12.95 15.1358Z" fill="#3B82F6" stroke="#09090B" stroke-width="2"/>
</svg>
