<svg width="20" height="18" viewBox="0 0 20 18" fill="none" xmlns="http://www.w3.org/2000/svg">
<path d="M10 17.1769L8.89618 16.1846C7.2385 14.6807 5.86766 13.3884 4.78368 12.3077C3.69971 11.2269 2.84075 10.265 2.20678 9.42208C1.5728 8.57913 1.12985 7.81022 0.87793 7.11535C0.625997 6.42048 0.500031 5.71536 0.500031 4.99998C0.500031 3.58076 0.978555 2.39263 1.93561 1.43558C2.89266 0.478526 4.08079 0 5.50001 0C6.37309 0 7.19809 0.204176 7.97501 0.612526C8.75192 1.02086 9.42692 1.60643 10 2.36925C10.5731 1.60643 11.2481 1.02086 12.025 0.612526C12.8019 0.204176 13.6269 0 14.5 0C15.9192 0 17.1074 0.478526 18.0644 1.43558C19.0215 2.39263 19.5 3.58076 19.5 4.99998C19.5 5.71536 19.374 6.42048 19.1221 7.11535C18.8702 7.81022 18.4272 8.57913 17.7932 9.42208C17.1593 10.265 16.3019 11.2269 15.2211 12.3077C14.1404 13.3884 12.7679 14.6807 11.1038 16.1846L10 17.1769Z" fill="#F4F4F5"/>
</svg>
