<svg width="16" height="16" viewBox="0 0 16 16" fill="none" xmlns="http://www.w3.org/2000/svg">
<path d="M7.99997 7.69228C7.03749 7.69228 6.21354 7.34958 5.52813 6.66418C4.84271 5.97876 4.5 5.15481 4.5 4.19233C4.5 3.22983 4.84271 2.40588 5.52813 1.72048C6.21354 1.03506 7.03749 0.692352 7.99997 0.692352C8.96246 0.692352 9.78641 1.03506 10.4718 1.72048C11.1572 2.40588 11.5 3.22983 11.5 4.19233C11.5 5.15481 11.1572 5.97876 10.4718 6.66418C9.78641 7.34958 8.96246 7.69228 7.99997 7.69228ZM0.5 15.3077V13.0846C0.5 12.5949 0.633016 12.1414 0.89905 11.7241C1.16507 11.3068 1.52051 10.9859 1.96537 10.7616C2.95384 10.2769 3.95096 9.91348 4.95672 9.67118C5.96249 9.42888 6.97691 9.30773 7.99997 9.30773C9.02304 9.30773 10.0375 9.42888 11.0432 9.67118C12.049 9.91348 13.0461 10.2769 14.0346 10.7616C14.4794 10.9859 14.8349 11.3068 15.1009 11.7241C15.3669 12.1414 15.5 12.5949 15.5 13.0846V15.3077H0.5Z" fill="#F4F4F5"/>
</svg>
