<svg width="22" height="22" viewBox="0 0 22 22" fill="none" xmlns="http://www.w3.org/2000/svg">
<path d="M9.88696 16.1131H12.1131V12.1131H16.1131V9.88696H12.1131V5.88696H9.88696V9.88696H5.88696V12.1131H9.88696V16.1131ZM11 21.4805C9.54131 21.4805 8.17543 21.2058 6.90236 20.6565C5.62928 20.1071 4.52188 19.3616 3.58016 18.4199C2.63843 17.4781 1.89289 16.3707 1.34356 15.0977C0.794228 13.8246 0.519562 12.4587 0.519562 11C0.519562 9.54131 0.794228 8.17543 1.34356 6.90236C1.89289 5.62928 2.63843 4.52188 3.58016 3.58016C4.52188 2.63843 5.62928 1.8929 6.90236 1.34356C8.17543 0.794229 9.54131 0.519562 11 0.519562C12.4587 0.519562 13.8246 0.794229 15.0977 1.34356C16.3707 1.8929 17.4781 2.63843 18.4199 3.58016C19.3616 4.52188 20.1071 5.62928 20.6565 6.90236C21.2058 8.17543 21.4805 9.54131 21.4805 11C21.4805 12.4587 21.2058 13.8246 20.6565 15.0977C20.1071 16.3707 19.3616 17.4781 18.4199 18.4199C17.4781 19.3616 16.3707 20.1071 15.0977 20.6565C13.8246 21.2058 12.4587 21.4805 11 21.4805Z" fill="#F4F4F5"/>
</svg>
