<svg width="20" height="20" viewBox="0 0 20 20" fill="none" xmlns="http://www.w3.org/2000/svg">
<path d="M9.25003 14.75H10.75V10.75H14.75V9.25003H10.75V5.25003H9.25003V9.25003H5.25003V10.75H9.25003V14.75ZM10.0017 19.5C8.68775 19.5 7.45271 19.2506 6.29658 18.752C5.14043 18.2533 4.13475 17.5766 3.27953 16.7217C2.4243 15.8669 1.74724 14.8616 1.24836 13.706C0.749472 12.5504 0.500031 11.3156 0.500031 10.0017C0.500031 8.68775 0.749364 7.45271 1.24803 6.29658C1.7467 5.14043 2.42345 4.13475 3.27828 3.27953C4.13313 2.4243 5.13837 1.74724 6.29401 1.24836C7.44962 0.749473 8.6844 0.500031 9.99833 0.500031C11.3123 0.500031 12.5473 0.749365 13.7034 1.24803C14.8596 1.7467 15.8653 2.42345 16.7205 3.27828C17.5757 4.13313 18.2528 5.13837 18.7517 6.29401C19.2505 7.44962 19.5 8.6844 19.5 9.99833C19.5 11.3123 19.2506 12.5473 18.752 13.7034C18.2533 14.8596 17.5766 15.8653 16.7217 16.7205C15.8669 17.5757 14.8616 18.2528 13.706 18.7517C12.5504 19.2505 11.3156 19.5 10.0017 19.5Z" fill="#F4F4F5"/>
</svg>
