<svg width="18" height="18" viewBox="0 0 18 18" fill="none" xmlns="http://www.w3.org/2000/svg">
<path d="M16.5423 17.5769L10.2615 11.2961C9.76152 11.7089 9.18652 12.032 8.53652 12.2653C7.88652 12.4987 7.21409 12.6153 6.51922 12.6153C4.81005 12.6153 3.36354 12.0236 2.17967 10.84C0.995803 9.65643 0.40387 8.21029 0.40387 6.50157C0.40387 4.79284 0.995653 3.34616 2.17922 2.16154C3.36279 0.976943 4.80894 0.384644 6.51767 0.384644C8.22639 0.384644 9.67305 0.976578 10.8577 2.16044C12.0423 3.34431 12.6346 4.79083 12.6346 6.49999C12.6346 7.21409 12.5147 7.89614 12.275 8.54614C12.0352 9.19614 11.7153 9.76153 11.3153 10.2423L17.5961 16.5231L16.5423 17.5769ZM6.51922 11.1154C7.80769 11.1154 8.89904 10.6683 9.79327 9.77404C10.6875 8.87981 11.1346 7.78846 11.1346 6.49999C11.1346 5.21153 10.6875 4.12018 9.79327 3.22594C8.89904 2.33171 7.80769 1.88459 6.51922 1.88459C5.23075 1.88459 4.1394 2.33171 3.24517 3.22594C2.35095 4.12018 1.90384 5.21153 1.90384 6.49999C1.90384 7.78846 2.35095 8.87981 3.24517 9.77404C4.1394 10.6683 5.23075 11.1154 6.51922 11.1154Z" fill="#F4F4F5"/>
</svg>
