<svg width="20" height="18" viewBox="0 0 20 18" fill="none" xmlns="http://www.w3.org/2000/svg">
<path d="M2.5 11.5C1.80133 11.5 1.21 11.258 0.726 10.774C0.242 10.29 0 9.69867 0 9C0 8.30133 0.242 7.71 0.726 7.226C1.21 6.742 1.80133 6.5 2.5 6.5V4.30775C2.5 3.81058 2.677 3.385 3.031 3.031C3.385 2.677 3.81058 2.5 4.30775 2.5H7.5C7.5 1.80133 7.742 1.21 8.226 0.725999C8.71 0.241999 9.30133 0 10 0C10.6987 0 11.29 0.241999 11.774 0.725999C12.258 1.21 12.5 1.80133 12.5 2.5H15.6923C16.1894 2.5 16.615 2.677 16.969 3.031C17.323 3.385 17.5 3.81058 17.5 4.30775V6.5C18.1987 6.5 18.79 6.742 19.274 7.226C19.758 7.71 20 8.30133 20 9C20 9.69867 19.758 10.29 19.274 10.774C18.79 11.258 18.1987 11.5 17.5 11.5V15.6923C17.5 16.1894 17.323 16.615 16.969 16.969C16.615 17.323 16.1894 17.5 15.6923 17.5H4.30775C3.81058 17.5 3.385 17.323 3.031 16.969C2.677 16.615 2.5 16.1894 2.5 15.6923V11.5ZM6.99875 9.75C7.34575 9.75 7.641 9.62858 7.8845 9.38575C8.12817 9.14292 8.25 8.84808 8.25 8.50125C8.25 8.15425 8.12858 7.859 7.88575 7.6155C7.64292 7.37183 7.34808 7.25 7.00125 7.25C6.65425 7.25 6.359 7.37142 6.1155 7.61425C5.87183 7.85708 5.75 8.15192 5.75 8.49875C5.75 8.84575 5.87142 9.141 6.11425 9.3845C6.35708 9.62817 6.65192 9.75 6.99875 9.75ZM12.9988 9.75C13.3458 9.75 13.641 9.62858 13.8845 9.38575C14.1282 9.14292 14.25 8.84808 14.25 8.50125C14.25 8.15425 14.1286 7.859 13.8857 7.6155C13.6429 7.37183 13.3481 7.25 13.0013 7.25C12.6543 7.25 12.359 7.37142 12.1155 7.61425C11.8718 7.85708 11.75 8.15192 11.75 8.49875C11.75 8.84575 11.8714 9.141 12.1143 9.3845C12.3571 9.62817 12.6519 9.75 12.9988 9.75ZM6.25 13.75H13.75V12.25H6.25V13.75ZM4.30775 16H15.6923C15.7821 16 15.8558 15.9712 15.9135 15.9135C15.9712 15.8558 16 15.7821 16 15.6923V4.30775C16 4.21792 15.9712 4.14417 15.9135 4.0865C15.8558 4.02883 15.7821 4 15.6923 4H4.30775C4.21792 4 4.14417 4.02883 4.0865 4.0865C4.02883 4.14417 4 4.21792 4 4.30775V15.6923C4 15.7821 4.02883 15.8558 4.0865 15.9135C4.14417 15.9712 4.21792 16 4.30775 16Z" fill="white"/>
</svg>
