<svg width="14" height="19" viewBox="0 0 14 19" fill="none" xmlns="http://www.w3.org/2000/svg">
<path d="M7 18.9423C6.59867 18.9423 6.24383 18.8365 5.9355 18.625C5.62717 18.4133 5.4115 18.1358 5.2885 17.7923H3.5V13.0115C2.491 12.4 1.69708 11.5802 1.11825 10.552C0.539417 9.52367 0.25 8.423 0.25 7.25C0.25 5.368 0.9045 3.7725 2.2135 2.4635C3.5225 1.1545 5.118 0.5 7 0.5C8.882 0.5 10.4775 1.1545 11.7865 2.4635C13.0955 3.7725 13.75 5.368 13.75 7.25C13.75 8.4435 13.4606 9.54925 12.8818 10.5673C12.3029 11.5853 11.509 12.4 10.5 13.0115V17.7923H8.7115C8.5885 18.1358 8.37283 18.4133 8.0645 18.625C7.75617 18.8365 7.40133 18.9423 7 18.9423ZM5 16.2923H9V15.3538H5V16.2923ZM5 14.4693H9V13.5H5V14.4693ZM4.8 12H6.40375V9.0885L4.2615 6.94625L5.1 6.10775L7 8.00775L8.9 6.10775L9.7385 6.94625L7.59625 9.0885V12H9.2C10.1 11.5667 10.8333 10.9292 11.4 10.0875C11.9667 9.24583 12.25 8.3 12.25 7.25C12.25 5.78333 11.7417 4.54167 10.725 3.525C9.70833 2.50833 8.46667 2 7 2C5.53333 2 4.29167 2.50833 3.275 3.525C2.25833 4.54167 1.75 5.78333 1.75 7.25C1.75 8.3 2.03333 9.24583 2.6 10.0875C3.16667 10.9292 3.9 11.5667 4.8 12Z" fill="#F4F4F5"/>
</svg>
