<svg width="24" height="24" viewBox="0 0 24 24" fill="none" xmlns="http://www.w3.org/2000/svg">
<mask id="mask0_9207_20573" style="mask-type:alpha" maskUnits="userSpaceOnUse" x="0" y="0" width="24" height="24">
<rect width="24" height="24" fill="#D9D9D9"/>
</mask>
<g mask="url(#mask0_9207_20573)">
<path d="M15.7731 12.973L14.65 11.85C14.8 11.0218 14.5638 10.2772 13.9414 9.61633C13.3189 8.95543 12.5551 8.69998 11.65 8.84998L10.527 7.72693C10.7526 7.62565 10.984 7.54969 11.2212 7.49906C11.4584 7.44841 11.718 7.42308 12 7.42308C13.1346 7.42308 14.0977 7.81892 14.8894 8.61058C15.6811 9.40225 16.0769 10.3654 16.0769 11.5C16.0769 11.782 16.0516 12.0448 16.0009 12.2884C15.9503 12.532 15.8743 12.7602 15.7731 12.973ZM18.9538 16.0846L17.85 15.05C18.4833 14.5666 19.0458 14.0375 19.5375 13.4625C20.0292 12.8875 20.45 12.2333 20.8 11.5C19.9667 9.81665 18.7708 8.47915 17.2125 7.48748C15.6542 6.49581 13.9167 5.99998 12 5.99998C11.5167 5.99998 11.0417 6.03332 10.575 6.09998C10.1083 6.16665 9.65001 6.26665 9.20001 6.39998L8.03466 5.23463C8.66671 4.98335 9.31222 4.79809 9.97119 4.67886C10.6302 4.55962 11.3064 4.50001 12 4.50001C14.3436 4.50001 16.457 5.14616 18.3404 6.43846C20.2237 7.73077 21.5974 9.41795 22.4615 11.5C22.091 12.3936 21.6125 13.2275 21.0259 14.0019C20.4394 14.7762 19.7487 15.4705 18.9538 16.0846ZM19.7615 21.8692L15.7154 17.8538C15.2026 18.0435 14.6343 18.1987 14.0106 18.3192C13.3869 18.4397 12.7167 18.5 12 18.5C9.65003 18.5 7.53658 17.8538 5.65966 16.5615C3.78275 15.2692 2.40903 13.582 1.53851 11.5C1.90775 10.6166 2.38467 9.79261 2.96929 9.02786C3.55391 8.26312 4.1975 7.59999 4.90006 7.03846L2.13081 4.23846L3.18466 3.18463L20.8154 20.8153L19.7615 21.8692ZM5.95389 8.09226C5.42569 8.51277 4.91191 9.01823 4.41254 9.60863C3.91317 10.199 3.509 10.8295 3.20001 11.5C4.03335 13.1833 5.22918 14.5208 6.78751 15.5125C8.34585 16.5041 10.0833 17 12 17C12.4551 17 12.9084 16.9615 13.3597 16.8846C13.8109 16.8077 14.1936 16.7282 14.5077 16.6461L13.2423 15.35C13.0718 15.4192 12.8744 15.4743 12.65 15.5153C12.4257 15.5564 12.209 15.5769 12 15.5769C10.8654 15.5769 9.90228 15.181 9.11061 14.3894C8.31895 13.5977 7.92311 12.6346 7.92311 11.5C7.92311 11.2974 7.94363 11.0856 7.98466 10.8644C8.0257 10.6432 8.08082 10.441 8.15004 10.2577L5.95389 8.09226Z" fill="#F4F4F5"/>
</g>
</svg>
